<svg width="49" height="49" viewBox="0 0 49 49" fill="none" xmlns="http://www.w3.org/2000/svg">
<g id="Iconsax/Bulk/addcircle">
<path id="Vector" opacity="0.4" d="M24.995 44.5C36.041 44.5 44.995 35.546 44.995 24.5C44.995 13.454 36.041 4.5 24.995 4.5C13.949 4.5 4.99498 13.454 4.99498 24.5C4.99498 35.546 13.949 44.5 24.995 44.5Z" fill="#8E6ED4"/>
<path id="Vector_2" d="M32.995 23H26.495V16.5C26.495 15.68 25.815 15 24.995 15C24.175 15 23.495 15.68 23.495 16.5V23H16.995C16.175 23 15.495 23.68 15.495 24.5C15.495 25.32 16.175 26 16.995 26H23.495V32.5C23.495 33.32 24.175 34 24.995 34C25.815 34 26.495 33.32 26.495 32.5V26H32.995C33.815 26 34.495 25.32 34.495 24.5C34.495 23.68 33.815 23 32.995 23Z" fill="#8E6ED4"/>
</g>
</svg>
