<svg width="24" height="24" viewBox="0 0 24 24" fill="none" xmlns="http://www.w3.org/2000/svg">
<g id="BookMarks">
<path id="Vector" d="M12.89 5.87891H5.11C4.28599 5.88154 3.49648 6.21005 2.91381 6.79272C2.33114 7.37538 2.00264 8.16489 2 8.98891V20.3489C2 21.7989 3.04 22.4189 4.31 21.7089L8.24 19.5189C8.66 19.2889 9.34 19.2889 9.75 19.5189L13.68 21.7089C14.96 22.4089 16 21.7989 16 20.3489V8.98891C16 7.27891 14.6 5.87891 12.89 5.87891Z" fill="#9496A0"/>
<path id="Vector_2" d="M22.0001 5.11V16.47C22.0001 17.92 20.9601 18.53 19.6901 17.83L17.7601 16.75C17.6818 16.7061 17.6165 16.6423 17.5709 16.565C17.5252 16.4877 17.5008 16.3998 17.5001 16.31V8.99C17.5001 6.45 15.4301 4.38 12.8901 4.38H8.82008C8.45008 4.38 8.19008 3.99 8.36008 3.67C8.88008 2.68 9.92008 2 11.1101 2H18.8901C20.6001 2 22.0001 3.4 22.0001 5.11Z" fill="#9496A0"/>
</g>
</svg>
