<svg width="32" height="32" viewBox="0 0 32 32" fill="none" xmlns="http://www.w3.org/2000/svg">
<g id="Iconsax/Bulk/briefcase">
<path id="Vector" d="M28.1213 9.30604C26.988 8.05271 25.0947 7.42604 22.348 7.42604H22.028V7.37271C22.028 5.13271 22.028 2.35938 17.0147 2.35938H14.988C9.97469 2.35938 9.97468 5.14604 9.97468 7.37271V7.43937H9.65469C6.89469 7.43937 5.01469 8.06604 3.88135 9.31938C2.56135 10.786 2.60135 12.7594 2.73469 14.106L2.74802 14.1994L2.88135 15.5994C2.89469 15.6127 2.92135 15.6394 2.94802 15.6527C3.38802 15.946 3.84135 16.2394 4.32135 16.506C4.50802 16.626 4.70802 16.7327 4.90802 16.8394C7.18802 18.0927 9.69468 18.9327 12.2414 19.346C12.3614 20.5994 12.908 22.066 15.828 22.066C18.748 22.066 19.3214 20.6127 19.4147 19.3194C22.1347 18.8794 24.7613 17.9327 27.1347 16.546C27.2147 16.506 27.268 16.466 27.3347 16.426C27.948 16.0794 28.5214 15.706 29.0814 15.2927C29.1098 15.2777 29.133 15.2545 29.148 15.226L29.2013 14.746L29.268 14.1194C29.2813 14.0394 29.2814 13.9727 29.2947 13.8794C29.4014 12.5327 29.3747 10.6927 28.1213 9.30604ZM17.4547 18.4394C17.4547 19.8527 17.4547 20.066 15.8147 20.066C14.1747 20.066 14.1747 19.8127 14.1747 18.4527V16.7727H17.4547V18.4394ZM11.8814 7.42604V7.37271C11.8814 5.10604 11.8814 4.26604 14.988 4.26604H17.0147C20.1214 4.26604 20.1214 5.11938 20.1214 7.37271V7.43937H11.8814V7.42604Z" fill="#8E6ED4"/>
<path id="Vector_2" opacity="0.4" d="M27.3332 16.3973L27.1332 16.5173C24.7495 17.9025 22.1335 18.8423 19.4132 19.2906C19.3066 20.5706 18.7465 22.0373 15.8265 22.0373C12.9065 22.0373 12.3465 20.5839 12.2399 19.3173C9.69322 18.9173 7.18655 18.0773 4.90655 16.8106C4.70655 16.7039 4.50655 16.5973 4.31988 16.4773C3.83988 16.2106 3.38655 15.9173 2.94655 15.6239C2.91988 15.6106 2.89322 15.5839 2.87988 15.5706L3.69322 24.2506C3.97322 26.9039 5.06655 29.6373 10.9332 29.6373H21.0932C26.9599 29.6373 28.0532 26.9039 28.3332 24.2373L29.1732 15.1973C29.1582 15.2257 29.135 15.2489 29.1066 15.2639C28.5332 15.6773 27.9466 16.0639 27.3332 16.3973Z" fill="#8E6ED4"/>
</g>
</svg>
