<svg width="32" height="32" viewBox="0 0 32 32" fill="none" xmlns="http://www.w3.org/2000/svg">
<g id="Iconsax/Bulk/building4">
<path id="Vector" opacity="0.4" d="M2.7998 29.3356V8.04229C2.7998 5.36229 4.13314 4.01562 6.78647 4.01562H15.0931C17.7465 4.01562 19.0665 5.36229 19.0665 8.04229V29.3356" fill="#8E6ED4"/>
<path id="Vector_2" d="M14.3329 12H7.73291C7.18624 12 6.73291 11.5467 6.73291 11C6.73291 10.4533 7.18624 10 7.73291 10H14.3329C14.8796 10 15.3329 10.4533 15.3329 11C15.3329 11.5467 14.8796 12 14.3329 12ZM14.3329 17H7.73291C7.18624 17 6.73291 16.5467 6.73291 16C6.73291 15.4533 7.18624 15 7.73291 15H14.3329C14.8796 15 15.3329 15.4533 15.3329 16C15.3329 16.5467 14.8796 17 14.3329 17ZM10.9996 30.3333C10.4529 30.3333 9.99958 29.88 9.99958 29.3333V24.3333C9.99958 23.7867 10.4529 23.3333 10.9996 23.3333C11.5462 23.3333 11.9996 23.7867 11.9996 24.3333V29.3333C11.9996 29.88 11.5462 30.3333 10.9996 30.3333Z" fill="#8E6ED4"/>
<path id="Vector_3" d="M30.6663 28.3341H27.6397V24.3341C28.9063 23.9208 29.8263 22.7341 29.8263 21.3341V18.6675C29.8263 16.9208 28.3997 15.4941 26.653 15.4941C24.9063 15.4941 23.4797 16.9208 23.4797 18.6675V21.3341C23.4797 22.7208 24.3863 23.8941 25.6263 24.3208V28.3341H1.33301C0.786341 28.3341 0.333008 28.7875 0.333008 29.3341C0.333008 29.8808 0.786341 30.3341 1.33301 30.3341H26.573C26.5997 30.3341 26.613 30.3475 26.6397 30.3475C26.6663 30.3475 26.6797 30.3341 26.7063 30.3341H30.6663C31.213 30.3341 31.6663 29.8808 31.6663 29.3341C31.6663 28.7875 31.213 28.3341 30.6663 28.3341Z" fill="#8E6ED4"/>
</g>
</svg>
