<svg width="11" height="11" viewBox="0 0 11 11" fill="none" xmlns="http://www.w3.org/2000/svg">
<g id="vuesax/linear/close-square">
<g id="close-square">
<path id="Union" fill-rule="evenodd" clip-rule="evenodd" d="M9.91548 1.06694C10.1596 0.822864 10.1596 0.427136 9.91548 0.183058C9.6714 -0.0610195 9.27567 -0.0610194 9.0316 0.183058L5.04933 4.16533L1.06706 0.183058C0.822986 -0.0610194 0.427258 -0.0610195 0.183181 0.183058C-0.0608973 0.427136 -0.0608974 0.822864 0.18318 1.06694L4.16545 5.04921L0.18318 9.03148C-0.0608974 9.27556 -0.0608973 9.67129 0.183181 9.91536C0.427258 10.1594 0.822986 10.1594 1.06706 9.91536L5.04933 5.9331L9.0316 9.91536C9.27567 10.1594 9.6714 10.1594 9.91548 9.91536C10.1596 9.67129 10.1596 9.27556 9.91548 9.03148L5.93321 5.04921L9.91548 1.06694Z" fill="#34363B"/>
</g>
</g>
</svg>
