<svg width="25" height="24" viewBox="0 0 25 24" fill="none" xmlns="http://www.w3.org/2000/svg">
<g id="vuesax/linear/add">
<g id="vuesax/linear/add_2">
<g id="add">
<path id="Union" fill-rule="evenodd" clip-rule="evenodd" d="M6.87358 5.81294C6.58068 5.52004 6.10581 5.52004 5.81292 5.81294C5.52002 6.10583 5.52002 6.5807 5.81292 6.8736L10.9394 12.0001L5.81292 17.1266C5.52002 17.4195 5.52002 17.8944 5.81292 18.1873C6.10581 18.4802 6.58068 18.4802 6.87358 18.1873L12.0001 13.0608L17.1266 18.1873C17.4195 18.4802 17.8944 18.4802 18.1873 18.1873C18.4802 17.8944 18.4802 17.4195 18.1873 17.1266L13.0608 12.0001L18.1873 6.8736C18.4802 6.58071 18.4802 6.10583 18.1873 5.81294C17.8944 5.52004 17.4195 5.52004 17.1266 5.81294L12.0001 10.9395L6.87358 5.81294Z" fill="#DEDEE0"/>
</g>
</g>
</g>
</svg>
