<svg width="20" height="28" viewBox="0 0 20 28" fill="none" xmlns="http://www.w3.org/2000/svg">
<path id="B" d="M10.5021 27.0558H0.041748V0.939453H9.74012C12.0723 0.962544 13.9427 1.4821 15.3513 2.49812C16.783 3.51414 17.4988 5.26908 17.4988 7.76295C17.4988 8.94061 17.2794 9.99126 16.8407 10.9149C16.4251 11.8386 15.6861 12.5659 14.6239 13.0971V13.1317C16.4943 13.3857 17.8452 14.1131 18.6765 15.3138C19.5309 16.4915 19.958 17.9924 19.958 19.8166C19.958 22.5414 18.9767 24.4349 17.0139 25.4971C15.0742 26.5362 12.9036 27.0558 10.5021 27.0558ZM6.83061 16.249V21.8602H7.69653C7.71962 21.8833 7.74272 21.8949 7.76581 21.8949C7.81199 21.8949 7.85817 21.8949 7.90435 21.8949C8.18145 21.8949 8.47009 21.8949 8.77028 21.8949C9.07047 21.8949 9.37066 21.8833 9.67084 21.8602C10.5252 21.7909 11.3103 21.5716 12.0262 21.2021C12.742 20.8327 13.0999 20.1399 13.0999 19.1239C13.0999 17.9462 12.7074 17.1842 11.9222 16.8379C11.1371 16.4915 10.2828 16.3067 9.35911 16.2837C9.15129 16.2837 8.93192 16.2837 8.70101 16.2837C8.49318 16.2837 8.28536 16.2837 8.07754 16.2837C7.98517 16.2837 7.89281 16.2837 7.80044 16.2837C7.70808 16.2837 7.61571 16.2837 7.52335 16.2837L6.83061 16.249ZM6.83061 6.13501V11.192H7.59262C7.61571 11.2151 7.6388 11.2267 7.6619 11.2267C7.70808 11.2267 7.75426 11.2267 7.80044 11.2267C8.65482 11.2036 9.43993 11.0419 10.1558 10.7417C10.8947 10.4415 11.2641 9.76035 11.2641 8.69815C11.2641 7.63595 10.9178 6.95475 10.225 6.65456C9.53229 6.35437 8.78183 6.19273 7.97363 6.16964C7.85817 6.16964 7.74272 6.16964 7.62726 6.16964C7.53489 6.16964 7.43098 6.16964 7.31553 6.16964L6.83061 6.13501Z" fill="white"/>
</svg>
