<svg width="42" height="42" viewBox="0 0 42 42" fill="none" xmlns="http://www.w3.org/2000/svg">
<g id="Group">
<path id="XMLID_11_" d="M21.0015 41C9.96698 41 1.00146 32.0345 1.00146 21C1.00146 9.96552 9.96698 1 21.0015 1C32.0359 1 41.0015 9.96552 41.0015 21C41.0015 32.0345 32.0359 41 21.0015 41Z" stroke="#C3C4C5" stroke-miterlimit="10"/>
<path id="XMLID_10_" d="M18.3288 31.6901H22.6391V20.8281H25.6564L26.0012 17.2074H22.6391C22.6391 17.2074 22.6391 15.8281 22.6391 15.1384C22.6391 14.2763 22.8115 13.9315 23.6736 13.9315C24.3633 13.9315 26.0012 13.9315 26.0012 13.9315V10.2246C26.0012 10.2246 23.5012 10.2246 22.984 10.2246C19.7943 10.2246 18.3288 11.6039 18.3288 14.3625C18.3288 16.6901 18.3288 17.2936 18.3288 17.2936H16.0874V21.0005H18.3288V31.6901Z" fill="white"/>
</g>
</svg>
