<svg width="33" height="33" viewBox="0 0 33 33" fill="none" xmlns="http://www.w3.org/2000/svg">
<path d="M26.4644 32.8262H5.87366C2.70066 32.8262 0.135254 30.2608 0.135254 27.1553V6.56458C0.135254 3.39158 2.70066 0.826172 5.87366 0.826172H26.4644C29.6374 0.826172 32.2028 3.39158 32.2028 6.56458V27.1553C32.1353 30.2608 29.5699 32.8262 26.4644 32.8262Z" fill="#8E6ED4" fill-opacity="0.1"/>
<path d="M13.7046 26.4799H17.6203V16.7584H20.3207L20.5907 13.5179H17.5528C17.5528 13.5179 17.5528 12.3027 17.5528 11.6276C17.5528 10.885 17.6878 10.5474 18.4304 10.5474C19.038 10.5474 20.5232 10.5474 20.5232 10.5474V7.17188C20.5232 7.17188 18.2954 7.17188 17.8228 7.17188C14.9198 7.17188 13.6371 8.45458 13.6371 10.885C13.6371 13.0453 13.6371 13.5179 13.6371 13.5179H11.6118V16.8259H13.6371V26.4799H13.7046Z" fill="#C4C5CA"/>
</svg>
