<svg width="24" height="24" viewBox="0 0 24 24" fill="none" xmlns="http://www.w3.org/2000/svg">
<g id="gmail">
<g id="Group">
<path id="Vector" d="M1.63636 21.0018H5.45456V11.7291L2.95434 7.36328L0 7.6382V19.3655C0 20.2696 0.732281 21.0018 1.63636 21.0018Z" fill="#0085F7"/>
<path id="Vector_2" d="M18.5454 21.0018H22.3636C23.2677 21.0018 24 20.2696 24 19.3655V7.6382L21.0499 7.36328L18.5455 11.7291V21.0018H18.5454Z" fill="#00A94B"/>
<path id="Vector_3" d="M18.5454 4.63881L16.3026 8.91863L18.5454 11.7297L24 7.6388V5.45701C24 3.43473 21.6914 2.27973 20.0727 3.49337L18.5454 4.63881Z" fill="#FFBC00"/>
<path id="Vector_4" fill-rule="evenodd" clip-rule="evenodd" d="M5.45455 11.7296L3.31738 7.21506L5.45455 4.63867L12 9.54775L18.5454 4.63867V11.7296L12 16.6387L5.45455 11.7296Z" fill="#FF4131"/>
<path id="Vector_5" d="M0 5.45701V7.6388L5.45456 11.7297V4.63881L3.92728 3.49337C2.30864 2.27973 0 3.43473 0 5.45701Z" fill="#E51C19"/>
</g>
</g>
</svg>
