<svg width="182" height="32" viewBox="0 0 182 32" fill="none" xmlns="http://www.w3.org/2000/svg">
<g id="Layer_1-2">
<path id="Vector" d="M6.56436 6.84925V13.2093H14.2935V18.792H6.56436V25.1521H18.8344V30.7757H0.365234V1.22559H18.8344V6.84925H6.56436Z" fill="#8E6ED4"/>
<path id="Vector_2" d="M69.4911 11.5273C69.4911 5.84639 64.8684 1.22363 59.1874 1.22363H47.8174V30.7765H54.0165V21.8283H55.552L63.3902 30.7765H71.5939L62.9729 21.1028C66.8948 19.5346 69.4884 15.7628 69.4884 11.5273H69.4911ZM54.0192 6.80912H58.3693C60.9711 6.80912 63.0875 8.92549 63.0875 11.5273C63.0875 14.1292 60.9711 16.2455 58.3693 16.2455H54.0192V6.80912Z" fill="#8E6ED4"/>
<path id="Vector_3" d="M89.2805 19.8565L81.3441 1.22363H73.6831V30.7765H79.8822V12.1382L87.8595 30.7765H95.5205V1.22363H89.2805V19.8565Z" fill="#8E6ED4"/>
<path id="Vector_4" d="M104.081 1.22363H97.8823V30.7765H115.122V25.1529H104.081V1.22363Z" fill="#DEDEE0"/>
<path id="Vector_5" d="M155.281 15.3666C156.448 13.8257 157.089 11.9384 157.089 10.0102C157.089 5.16652 153.148 1.22559 148.304 1.22559H136.154L137.643 6.84925H147.729C149.472 6.84925 150.89 8.26744 150.89 10.0075C150.89 11.7475 149.472 13.2093 147.729 13.2093H139.351L140.892 18.792H148.921C150.663 18.792 152.082 20.2266 152.082 21.9939C152.082 23.7612 150.663 25.1521 148.921 25.1521H142.596L144.134 30.7757H149.496C154.362 30.7757 158.322 26.8348 158.322 21.9912C158.322 19.4302 157.22 17.0384 155.283 15.3638L155.281 15.3666Z" fill="#DEDEE0"/>
<path id="Vector_6" d="M172.13 13.3382C169.149 12.2336 166.574 11.2818 166.574 9.39177C166.574 7.33267 168.658 6.39721 170.594 6.39721C174.224 6.39721 174.985 8.80813 174.985 10.8291V11.2409H181.225V10.8291C181.225 5.02539 176.581 0.814453 170.183 0.814453C164.499 0.814453 160.373 4.42266 160.373 9.39177C160.373 15.0073 165.503 16.8591 169.624 18.3482C172.741 19.4746 175.435 20.4482 175.435 22.6082C175.435 24.3155 173.529 25.6028 171.004 25.6028C167.341 25.6028 166.572 23.1918 166.572 21.1709V20.7591H160.373V21.1709C160.373 27.0673 164.913 31.1855 171.413 31.1855C177.238 31.1855 181.635 27.4982 181.635 22.6082C181.635 16.8591 176.363 14.9063 172.127 13.3382H172.13Z" fill="#DEDEE0"/>
<path id="Vector_7" d="M125.008 1.22363L117.028 30.7765H123.301L124.623 25.5892H133.34L134.69 30.7765H141.415L133.435 1.22363H125.008ZM128.938 8.66095L131.878 19.9656H126.058L128.938 8.66095Z" fill="#DEDEE0"/>
<path id="Vector_8" d="M28.9854 1.22363L21.0054 30.7765H27.2781L28.6009 25.5892H37.3173L38.6673 30.7765H45.3928L37.4127 1.22363H28.9854ZM32.9154 8.66095L35.8555 19.9656H30.0354L32.9154 8.66095Z" fill="#8E6ED4"/>
</g>
</svg>
