<svg width="554" height="302" viewBox="0 0 554 302" fill="none" xmlns="http://www.w3.org/2000/svg">
<g opacity="0.5" clip-path="url(#clip0_1808_12515)">
<circle cx="3.07511" cy="3.14396" r="3.11857" fill="#DEDEE0"/>
<circle cx="39.3122" cy="3.14396" r="3.11857" fill="#DEDEE0"/>
<circle cx="75.5495" cy="3.14396" r="3.11857" fill="#DEDEE0"/>
<circle cx="111.787" cy="3.14396" r="3.11857" fill="#DEDEE0"/>
<circle cx="148.024" cy="3.14396" r="3.11857" fill="#DEDEE0"/>
<circle cx="184.261" cy="3.14396" r="3.11857" fill="#DEDEE0"/>
<circle cx="220.498" cy="3.14396" r="3.11857" fill="#DEDEE0"/>
<circle cx="256.735" cy="3.14396" r="3.11857" fill="#DEDEE0"/>
<circle cx="292.972" cy="3.14396" r="3.11857" fill="#DEDEE0"/>
<circle cx="329.209" cy="3.14396" r="3.11857" fill="#DEDEE0"/>
<circle cx="365.446" cy="3.14396" r="3.11857" fill="#DEDEE0"/>
<circle cx="401.684" cy="3.14396" r="3.11857" fill="#DEDEE0"/>
<circle cx="437.921" cy="3.14396" r="3.11857" fill="#DEDEE0"/>
<circle cx="474.158" cy="3.14396" r="3.11857" fill="#DEDEE0"/>
<circle cx="510.395" cy="3.14396" r="3.11857" fill="#DEDEE0"/>
<circle cx="546.632" cy="3.14396" r="3.11857" fill="#DEDEE0"/>
<circle cx="3.07511" cy="39.3813" r="3.11857" fill="#DEDEE0"/>
<circle cx="39.3122" cy="39.3813" r="3.11857" fill="#DEDEE0"/>
<circle cx="75.5495" cy="39.3813" r="3.11857" fill="#DEDEE0"/>
<circle cx="111.787" cy="39.3813" r="3.11857" fill="#DEDEE0"/>
<circle cx="148.024" cy="39.3813" r="3.11857" fill="#DEDEE0"/>
<circle cx="184.261" cy="39.3813" r="3.11857" fill="#DEDEE0"/>
<circle cx="220.498" cy="39.3813" r="3.11857" fill="#DEDEE0"/>
<circle cx="256.735" cy="39.3813" r="3.11857" fill="#DEDEE0"/>
<circle cx="292.972" cy="39.3813" r="3.11857" fill="#DEDEE0"/>
<circle cx="329.209" cy="39.3813" r="3.11857" fill="#DEDEE0"/>
<circle cx="365.446" cy="39.3813" r="3.11857" fill="#DEDEE0"/>
<circle cx="401.684" cy="39.3813" r="3.11857" fill="#DEDEE0"/>
<circle cx="437.921" cy="39.3813" r="3.11857" fill="#DEDEE0"/>
<circle cx="474.158" cy="39.3813" r="3.11857" fill="#DEDEE0"/>
<circle cx="510.395" cy="39.3813" r="3.11857" fill="#DEDEE0"/>
<circle cx="546.632" cy="39.3813" r="3.11857" fill="#DEDEE0"/>
<circle cx="3.07511" cy="75.6186" r="3.11857" fill="#DEDEE0"/>
<circle cx="39.3122" cy="75.6186" r="3.11857" fill="#DEDEE0"/>
<circle cx="75.5495" cy="75.6186" r="3.11857" fill="#DEDEE0"/>
<circle cx="111.787" cy="75.6186" r="3.11857" fill="#DEDEE0"/>
<circle cx="148.024" cy="75.6186" r="3.11857" fill="#DEDEE0"/>
<circle cx="184.261" cy="75.6186" r="3.11857" fill="#DEDEE0"/>
<circle cx="220.498" cy="75.6186" r="3.11857" fill="#DEDEE0"/>
<circle cx="256.735" cy="75.6186" r="3.11857" fill="#DEDEE0"/>
<circle cx="292.972" cy="75.6186" r="3.11857" fill="#DEDEE0"/>
<circle cx="329.209" cy="75.6186" r="3.11857" fill="#DEDEE0"/>
<circle cx="365.446" cy="75.6186" r="3.11857" fill="#DEDEE0"/>
<circle cx="401.684" cy="75.6186" r="3.11857" fill="#DEDEE0"/>
<circle cx="437.921" cy="75.6186" r="3.11857" fill="#DEDEE0"/>
<circle cx="474.158" cy="75.6186" r="3.11857" fill="#DEDEE0"/>
<circle cx="510.395" cy="75.6186" r="3.11857" fill="#DEDEE0"/>
<circle cx="546.632" cy="75.6186" r="3.11857" fill="#DEDEE0"/>
<circle cx="3.07511" cy="111.855" r="3.11857" fill="#DEDEE0"/>
<circle cx="39.3122" cy="111.855" r="3.11857" fill="#DEDEE0"/>
<circle cx="75.5495" cy="111.855" r="3.11857" fill="#DEDEE0"/>
<circle cx="111.787" cy="111.855" r="3.11857" fill="#DEDEE0"/>
<circle cx="148.024" cy="111.855" r="3.11857" fill="#DEDEE0"/>
<circle cx="184.261" cy="111.855" r="3.11857" fill="#DEDEE0"/>
<circle cx="220.498" cy="111.855" r="3.11857" fill="#DEDEE0"/>
<circle cx="256.735" cy="111.855" r="3.11857" fill="#DEDEE0"/>
<circle cx="292.972" cy="111.855" r="3.11857" fill="#DEDEE0"/>
<circle cx="329.209" cy="111.855" r="3.11857" fill="#DEDEE0"/>
<circle cx="365.446" cy="111.855" r="3.11857" fill="#DEDEE0"/>
<circle cx="401.684" cy="111.855" r="3.11857" fill="#DEDEE0"/>
<circle cx="437.921" cy="111.855" r="3.11857" fill="#DEDEE0"/>
<circle cx="474.158" cy="111.855" r="3.11857" fill="#DEDEE0"/>
<circle cx="510.395" cy="111.855" r="3.11857" fill="#DEDEE0"/>
<circle cx="546.632" cy="111.855" r="3.11857" fill="#DEDEE0"/>
<circle cx="3.07511" cy="148.092" r="3.11857" fill="#DEDEE0"/>
<circle cx="39.3122" cy="148.092" r="3.11857" fill="#DEDEE0"/>
<circle cx="75.5495" cy="148.092" r="3.11857" fill="#DEDEE0"/>
<circle cx="111.787" cy="148.092" r="3.11857" fill="#DEDEE0"/>
<circle cx="148.024" cy="148.092" r="3.11857" fill="#DEDEE0"/>
<circle cx="184.261" cy="148.092" r="3.11857" fill="#DEDEE0"/>
<circle cx="220.498" cy="148.092" r="3.11857" fill="#DEDEE0"/>
<circle cx="256.735" cy="148.092" r="3.11857" fill="#DEDEE0"/>
<circle cx="292.972" cy="148.092" r="3.11857" fill="#DEDEE0"/>
<circle cx="329.209" cy="148.092" r="3.11857" fill="#DEDEE0"/>
<circle cx="365.446" cy="148.092" r="3.11857" fill="#DEDEE0"/>
<circle cx="401.684" cy="148.092" r="3.11857" fill="#DEDEE0"/>
<circle cx="437.921" cy="148.092" r="3.11857" fill="#DEDEE0"/>
<circle cx="474.158" cy="148.092" r="3.11857" fill="#DEDEE0"/>
<circle cx="510.395" cy="148.092" r="3.11857" fill="#DEDEE0"/>
<circle cx="546.632" cy="148.092" r="3.11857" fill="#DEDEE0"/>
<circle cx="3.07511" cy="184.329" r="3.11857" fill="#DEDEE0"/>
<circle cx="39.3122" cy="184.329" r="3.11857" fill="#DEDEE0"/>
<circle cx="75.5495" cy="184.329" r="3.11857" fill="#DEDEE0"/>
<circle cx="111.787" cy="184.329" r="3.11857" fill="#DEDEE0"/>
<circle cx="148.024" cy="184.329" r="3.11857" fill="#DEDEE0"/>
<circle cx="184.261" cy="184.329" r="3.11857" fill="#DEDEE0"/>
<circle cx="220.498" cy="184.329" r="3.11857" fill="#DEDEE0"/>
<circle cx="256.735" cy="184.329" r="3.11857" fill="#DEDEE0"/>
<circle cx="292.972" cy="184.329" r="3.11857" fill="#DEDEE0"/>
<circle cx="329.209" cy="184.329" r="3.11857" fill="#DEDEE0"/>
<circle cx="365.446" cy="184.329" r="3.11857" fill="#DEDEE0"/>
<circle cx="401.684" cy="184.329" r="3.11857" fill="#DEDEE0"/>
<circle cx="437.921" cy="184.329" r="3.11857" fill="#DEDEE0"/>
<circle cx="474.158" cy="184.329" r="3.11857" fill="#DEDEE0"/>
<circle cx="510.395" cy="184.329" r="3.11857" fill="#DEDEE0"/>
<circle cx="546.632" cy="184.329" r="3.11857" fill="#DEDEE0"/>
<circle cx="3.07511" cy="220.567" r="3.11857" fill="#DEDEE0"/>
<circle cx="39.3122" cy="220.567" r="3.11857" fill="#DEDEE0"/>
<circle cx="75.5495" cy="220.567" r="3.11857" fill="#DEDEE0"/>
<circle cx="111.787" cy="220.567" r="3.11857" fill="#DEDEE0"/>
<circle cx="148.024" cy="220.567" r="3.11857" fill="#DEDEE0"/>
<circle cx="184.261" cy="220.567" r="3.11857" fill="#DEDEE0"/>
<circle cx="220.498" cy="220.567" r="3.11857" fill="#DEDEE0"/>
<circle cx="256.735" cy="220.567" r="3.11857" fill="#DEDEE0"/>
<circle cx="292.972" cy="220.567" r="3.11857" fill="#DEDEE0"/>
<circle cx="329.209" cy="220.567" r="3.11857" fill="#DEDEE0"/>
<circle cx="365.446" cy="220.567" r="3.11857" fill="#DEDEE0"/>
<circle cx="401.684" cy="220.567" r="3.11857" fill="#DEDEE0"/>
<circle cx="437.921" cy="220.567" r="3.11857" fill="#DEDEE0"/>
<circle cx="474.158" cy="220.567" r="3.11857" fill="#DEDEE0"/>
<circle cx="510.395" cy="220.567" r="3.11857" fill="#DEDEE0"/>
<circle cx="546.632" cy="220.567" r="3.11857" fill="#DEDEE0"/>
<circle cx="3.07511" cy="256.804" r="3.11857" fill="#DEDEE0"/>
<circle cx="39.3122" cy="256.804" r="3.11857" fill="#DEDEE0"/>
<circle cx="75.5495" cy="256.804" r="3.11857" fill="#DEDEE0"/>
<circle cx="111.787" cy="256.804" r="3.11857" fill="#DEDEE0"/>
<circle cx="148.024" cy="256.804" r="3.11857" fill="#DEDEE0"/>
<circle cx="184.261" cy="256.804" r="3.11857" fill="#DEDEE0"/>
<circle cx="220.498" cy="256.804" r="3.11857" fill="#DEDEE0"/>
<circle cx="256.735" cy="256.804" r="3.11857" fill="#DEDEE0"/>
<circle cx="292.972" cy="256.804" r="3.11857" fill="#DEDEE0"/>
<circle cx="329.209" cy="256.804" r="3.11857" fill="#DEDEE0"/>
<circle cx="365.446" cy="256.804" r="3.11857" fill="#DEDEE0"/>
<circle cx="401.684" cy="256.804" r="3.11857" fill="#DEDEE0"/>
<circle cx="437.921" cy="256.804" r="3.11857" fill="#DEDEE0"/>
<circle cx="474.158" cy="256.804" r="3.11857" fill="#DEDEE0"/>
<circle cx="510.395" cy="256.804" r="3.11857" fill="#DEDEE0"/>
<circle cx="546.632" cy="256.804" r="3.11857" fill="#DEDEE0"/>
<circle cx="3.07511" cy="293.041" r="3.11857" fill="#DEDEE0"/>
<circle cx="39.3122" cy="293.041" r="3.11857" fill="#DEDEE0"/>
<circle cx="75.5495" cy="293.041" r="3.11857" fill="#DEDEE0"/>
<circle cx="111.787" cy="293.041" r="3.11857" fill="#DEDEE0"/>
<circle cx="148.024" cy="293.041" r="3.11857" fill="#DEDEE0"/>
<circle cx="184.261" cy="293.041" r="3.11857" fill="#DEDEE0"/>
<circle cx="220.498" cy="293.041" r="3.11857" fill="#DEDEE0"/>
<circle cx="256.735" cy="293.041" r="3.11857" fill="#DEDEE0"/>
<circle cx="292.972" cy="293.041" r="3.11857" fill="#DEDEE0"/>
<circle cx="329.209" cy="293.041" r="3.11857" fill="#DEDEE0"/>
<circle cx="365.446" cy="293.041" r="3.11857" fill="#DEDEE0"/>
<circle cx="401.684" cy="293.041" r="3.11857" fill="#DEDEE0"/>
<circle cx="437.921" cy="293.041" r="3.11857" fill="#DEDEE0"/>
<circle cx="474.158" cy="293.041" r="3.11857" fill="#DEDEE0"/>
<circle cx="510.395" cy="293.041" r="3.11857" fill="#DEDEE0"/>
<circle cx="546.632" cy="293.041" r="3.11857" fill="#DEDEE0"/>
</g>
<defs>
<clipPath id="clip0_1808_12515">
<rect width="585" height="302" fill="white"/>
</clipPath>
</defs>
</svg>
