<svg width="42" height="42" viewBox="0 0 42 42" fill="none" xmlns="http://www.w3.org/2000/svg">
<g id="Group">
<g id="Group_2">
<path id="XMLID_9_" d="M21.0005 41C9.966 41 1.00049 32.0345 1.00049 21C1.00049 9.96552 9.966 1 21.0005 1C32.035 1 41.0005 9.96552 41.0005 21C41.0867 32.0345 32.1212 41 21.0005 41Z" stroke="#C3C4C5" stroke-miterlimit="10"/>
</g>
<g id="XMLID_1_">
<path id="XMLID_6_" d="M21.0016 12.9832C23.5878 12.9832 23.9327 12.9832 24.9672 13.0694C25.9154 13.1556 26.4327 13.2418 26.7775 13.4142C27.2085 13.5866 27.5534 13.7591 27.8982 14.1039C28.243 14.4487 28.4154 14.7935 28.5878 15.2246C28.7603 15.5694 28.8465 16.0866 28.9327 17.0349C29.0189 18.0694 29.0189 18.328 29.0189 21.0004C29.0189 23.5866 29.0189 23.9315 28.9327 24.966C28.8465 25.9142 28.7603 26.4315 28.5878 26.7763C28.4154 27.2073 28.243 27.5522 27.8982 27.897C27.5534 28.2418 27.2085 28.4142 26.7775 28.5866C26.4327 28.7591 25.9154 28.8453 24.9672 28.9315C23.9327 29.0177 23.674 29.0177 21.0016 29.0177C18.4154 29.0177 18.0706 29.0177 17.0361 28.9315C16.0878 28.8453 15.5706 28.7591 15.2258 28.5866C14.7947 28.4142 14.4499 28.2418 14.1051 27.897C13.7603 27.5522 13.5878 27.2073 13.4154 26.7763C13.243 26.4315 13.1568 25.9142 13.0706 24.966C12.9844 23.9315 12.9844 23.6729 12.9844 21.0004C12.9844 18.4142 12.9844 18.0694 13.0706 17.0349C13.1568 16.0866 13.243 15.5694 13.4154 15.2246C13.5878 14.7935 13.7603 14.4487 14.1051 14.1039C14.4499 13.7591 14.7947 13.5866 15.2258 13.4142C15.5706 13.2418 16.0878 13.1556 17.0361 13.0694C18.1568 12.9832 18.4154 12.9832 21.0016 12.9832ZM21.0016 11.1729C18.3292 11.1729 17.9844 11.1729 16.9499 11.2591C15.9154 11.3453 15.2258 11.4315 14.6223 11.6901C14.0189 11.9487 13.4154 12.2935 12.8982 12.8108C12.3809 13.328 12.0361 13.9315 11.7775 14.5349C11.5189 15.1384 11.3465 15.828 11.3465 16.8625C11.2603 17.897 11.2603 18.2418 11.2603 20.9142C11.2603 23.5866 11.2603 23.9315 11.3465 24.966C11.4327 26.0004 11.5189 26.6901 11.7775 27.2935C12.0361 27.897 12.3809 28.5004 12.8982 29.0177C13.4154 29.5349 14.0189 29.8797 14.6223 30.1384C15.2258 30.397 15.9154 30.5694 16.9499 30.5694C17.9844 30.6556 18.3292 30.6556 21.0016 30.6556C23.674 30.6556 24.0189 30.6556 25.0534 30.5694C26.0878 30.4832 26.7775 30.397 27.3809 30.1384C27.9844 29.8797 28.5878 29.5349 29.1051 29.0177C29.6223 28.5004 29.9671 27.897 30.2258 27.2935C30.4844 26.6901 30.6568 26.0004 30.6568 24.966C30.743 23.9315 30.743 23.5866 30.743 20.9142C30.743 18.2418 30.743 17.897 30.6568 16.8625C30.5706 15.828 30.4844 15.1384 30.2258 14.5349C29.9671 13.9315 29.6223 13.328 29.1051 12.8108C28.5878 12.2935 27.9844 11.9487 27.3809 11.6901C26.7775 11.4315 26.0878 11.2591 25.0534 11.2591C24.0189 11.1729 23.674 11.1729 21.0016 11.1729Z" fill="white"/>
<path id="XMLID_3_" d="M21.0005 15.9141C18.2419 15.9141 16.0005 18.1554 16.0005 20.9141C16.0005 23.6727 18.2419 25.9141 21.0005 25.9141C23.7591 25.9141 26.0005 23.6727 26.0005 20.9141C26.0005 18.1554 23.8453 15.9141 21.0005 15.9141ZM21.0005 24.1899C19.1901 24.1899 17.7246 22.7244 17.7246 20.9141C17.7246 19.1037 19.1901 17.6382 21.0005 17.6382C22.8108 17.6382 24.2764 19.1037 24.2764 20.9141C24.2764 22.7244 22.8108 24.1899 21.0005 24.1899Z" fill="white"/>
<path id="XMLID_2_" d="M27.383 15.7421C27.383 16.3455 26.8658 16.9489 26.1761 16.9489C25.5727 16.9489 24.9692 16.4317 24.9692 15.7421C24.9692 15.1386 25.4865 14.5352 26.1761 14.5352C26.8658 14.5352 27.383 15.0524 27.383 15.7421Z" fill="white"/>
</g>
</g>
</svg>
