<svg width="33" height="33" viewBox="0 0 33 33" fill="none" xmlns="http://www.w3.org/2000/svg">
<path d="M26.5318 32.8262H5.94105C2.76804 32.8262 0.202637 30.2608 0.202637 27.0878V6.56458C0.202637 3.39158 2.76804 0.826172 5.94105 0.826172H26.5318C29.7048 0.826172 32.2702 3.39158 32.2702 6.56458V27.1553C32.2702 30.2608 29.7048 32.8262 26.5318 32.8262Z" fill="#8E6ED4" fill-opacity="0.1"/>
<path d="M16.2707 9.66957C18.6335 9.66957 18.9036 9.66957 19.8487 9.73708C20.7264 9.80459 21.1989 9.93962 21.469 10.0071C21.874 10.1421 22.1441 10.3447 22.4816 10.6822C22.8192 11.0198 22.9542 11.2898 23.1568 11.6949C23.2918 12.0324 23.4268 12.4375 23.4268 13.3152C23.4943 14.2603 23.4943 14.5303 23.4943 16.8932C23.4943 19.2561 23.4943 19.5261 23.4268 20.4713C23.3593 21.3489 23.2243 21.8215 23.1568 22.0915C23.0217 22.4966 22.8192 22.7666 22.4816 23.1042C22.1441 23.4418 21.874 23.5768 21.469 23.7793C21.1314 23.9143 20.7264 24.0494 19.8487 24.0494C18.9036 24.1169 18.6335 24.1169 16.2707 24.1169C13.9078 24.1169 13.6377 24.1169 12.6926 24.0494C11.815 23.9818 11.3424 23.8468 11.0723 23.7793C10.6673 23.6443 10.3972 23.4418 10.0597 23.1042C9.72212 22.7666 9.5871 22.4966 9.38457 22.0915C9.24955 21.754 9.11453 21.3489 9.11453 20.4713C9.04701 19.5261 9.04702 19.2561 9.04702 16.8932C9.04702 14.5303 9.04701 14.2603 9.11453 13.3152C9.18204 12.4375 9.31706 11.9649 9.38457 11.6949C9.51959 11.2898 9.72212 11.0198 10.0597 10.6822C10.3972 10.3447 10.6673 10.2097 11.0723 10.0071C11.4099 9.87211 11.815 9.73708 12.6926 9.73708C13.6377 9.66957 13.9078 9.66957 16.2707 9.66957ZM16.2707 8.04932C13.9078 8.04932 13.5702 8.04932 12.6251 8.11683C11.6799 8.18434 11.0723 8.31936 10.4647 8.52189C9.85714 8.72442 9.38457 9.06198 8.912 9.53455C8.43942 10.0071 8.10187 10.4797 7.89934 11.0873C7.6968 11.6274 7.56178 12.3025 7.49427 13.2476C7.42676 14.1928 7.42676 14.4628 7.42676 16.8932C7.42676 19.3236 7.42676 19.5936 7.49427 20.5388C7.56178 21.4839 7.6968 22.0915 7.89934 22.6991C8.10187 23.3067 8.43942 23.7793 8.912 24.2519C9.38457 24.7245 9.85714 25.062 10.4647 25.2645C11.0048 25.4671 11.6799 25.6021 12.6251 25.6696C13.5702 25.7371 13.8403 25.7371 16.2707 25.7371C18.6335 25.7371 18.9711 25.7371 19.9162 25.6696C20.8614 25.6021 21.469 25.4671 22.0766 25.2645C22.6842 25.062 23.1567 24.7245 23.6293 24.2519C24.1019 23.7793 24.4395 23.3067 24.642 22.6991C24.8445 22.1591 24.9795 21.4839 25.047 20.5388C25.1146 19.5936 25.1146 19.3236 25.1146 16.8932C25.1146 14.4628 25.1146 14.1928 25.047 13.2476C24.912 12.3025 24.777 11.6274 24.5745 11.0873C24.3719 10.4797 24.0344 10.0071 23.5618 9.53455C23.0892 9.06198 22.6167 8.72442 22.0091 8.52189C21.469 8.31936 20.7939 8.18434 19.8487 8.11683C18.9036 8.04932 18.6335 8.04932 16.2707 8.04932Z" fill="#C4C5CA"/>
<path d="M16.2708 12.3027C13.7729 12.3027 11.7476 14.3281 11.7476 16.826C11.7476 19.3238 13.7729 21.3492 16.2708 21.3492C18.7687 21.3492 20.794 19.3238 20.794 16.826C20.794 14.3281 18.7012 12.3027 16.2708 12.3027ZM16.2708 19.7289C14.6505 19.7289 13.3678 18.4462 13.3678 16.826C13.3678 15.2057 14.6505 13.923 16.2708 13.923C17.891 13.923 19.1737 15.2057 19.1737 16.826C19.1737 18.4462 17.8235 19.7289 16.2708 19.7289Z" fill="#C4C5CA"/>
<path d="M22.009 12.1681C22.009 12.7757 21.5364 13.2482 20.9288 13.2482C20.3212 13.2482 19.8486 12.7757 19.8486 12.1681C19.8486 11.5605 20.3212 11.0879 20.9288 11.0879C21.5364 11.0879 22.009 11.5605 22.009 12.1681Z" fill="#C4C5CA"/>
</svg>
