<svg width="120" height="120" viewBox="0 0 120 120" fill="none" xmlns="http://www.w3.org/2000/svg">
<g id="Group">
<g id="Group_2">
<g id="Group_3">
<path id="Vector" d="M119.685 59.8424C119.685 73.9229 114.825 86.8476 106.708 97.0402C95.7531 110.832 78.8354 119.658 59.8424 119.658C40.8757 119.658 23.9317 110.806 12.9772 97.0402C4.8599 86.8213 0 73.8967 0 59.8424C0 45.7881 4.8599 32.8634 12.9772 22.6445C16.4711 18.2312 20.6217 14.2907 25.2452 11.007C35.0175 4.07178 46.944 0 59.8424 0C78.4939 0 95.5167 8.53764 106.708 22.6445C114.851 32.8634 119.685 45.7881 119.685 59.8424Z" fill="#E3DBF4"/>
<path id="Vector_2" d="M112.119 10.4285C111.463 11.8734 112.119 13.5809 113.564 14.2114C115.009 14.8681 116.69 14.2376 117.347 12.7928C118.004 11.348 117.373 9.64043 115.929 8.98369C114.484 8.32695 112.776 8.98369 112.119 10.4285Z" fill="#E3DBF4"/>
<path id="Vector_3" d="M107.89 4.80746C107.47 5.7269 107.89 6.80394 108.809 7.22426C109.729 7.64457 110.806 7.22426 111.226 6.30482C111.647 5.38538 111.252 4.30833 110.333 3.88802C109.414 3.4677 108.31 3.88802 107.89 4.80746Z" fill="#E3DBF4"/>
<path id="Vector_4" d="M7.72295 110.28C7.0662 111.725 7.72295 113.432 9.16778 114.063C10.6126 114.72 12.2939 114.089 12.9506 112.644C13.6074 111.2 12.9769 109.492 11.5321 108.835C10.0872 108.179 8.37969 108.835 7.72295 110.28Z" fill="#E3DBF4"/>
<path id="Vector_5" d="M102.163 112.04C101.69 113.091 102.163 114.3 103.214 114.772C104.265 115.245 105.473 114.772 105.946 113.748C106.419 112.723 105.972 111.462 104.921 111.016C103.871 110.517 102.636 110.99 102.163 112.04Z" fill="#E3DBF4"/>
<path id="Vector_6" d="M3.49349 104.659C3.07317 105.578 3.49349 106.656 4.41293 107.076C5.33237 107.496 6.40941 107.076 6.82973 106.156C7.25004 105.237 6.85599 104.16 5.93655 103.74C4.99084 103.319 3.9138 103.74 3.49349 104.659Z" fill="#E3DBF4"/>
</g>
<g id="Group_4">
<g id="Group_5">
<path id="Vector_7" d="M113.38 31.2602V94.8592C113.38 98.7471 110.228 101.899 106.34 101.899H13.3714C9.48343 101.899 6.33105 98.7471 6.33105 94.8592V31.2602C6.33105 30.7348 6.7514 30.3145 7.27679 30.3145H112.461C112.96 30.3407 113.38 30.7611 113.38 31.2602Z" fill="#FEFEFF"/>
<path id="Vector_8" d="M113.38 24.9289V31.2599C113.38 31.7853 112.96 32.2057 112.434 32.2057H7.25039C6.725 32.2057 6.30469 31.7853 6.30469 31.2599V24.9289C6.30469 21.041 9.48334 17.8887 13.345 17.8887H106.314C110.228 17.8887 113.38 21.041 113.38 24.9289Z" fill="#8E6ED4"/>
</g>
<g id="Group_6">
<path id="Vector_9" d="M93.4674 25.0589C93.4674 26.0309 92.6793 26.819 91.7073 26.819C90.7353 26.819 89.9473 26.0309 89.9473 25.0589C89.9473 24.0869 90.7353 23.2988 91.7073 23.2988C92.6793 23.2988 93.4674 24.0869 93.4674 25.0589Z" fill="white"/>
<path id="Vector_10" d="M99.7193 25.0589C99.7193 26.0309 98.9313 26.819 97.9593 26.819C96.9873 26.819 96.1992 26.0309 96.1992 25.0589C96.1992 24.0869 96.9873 23.2988 97.9593 23.2988C98.9313 23.2988 99.7193 24.0869 99.7193 25.0589Z" fill="white"/>
<path id="Vector_11" d="M105.998 25.0589C105.998 26.0309 105.21 26.819 104.238 26.819C103.266 26.819 102.478 26.0309 102.478 25.0589C102.478 24.0869 103.266 23.2988 104.238 23.2988C105.21 23.2988 105.998 24.0869 105.998 25.0589Z" fill="white"/>
</g>
</g>
<g id="Group_7">
<g id="Group_8">
<g id="Group_9">
<path id="Vector_12" d="M37.645 51.6728C37.645 56.0598 34.0723 59.6325 29.6853 59.6325C25.2982 59.6325 21.7256 56.0598 21.7256 51.6728C21.7256 47.2857 25.2982 43.713 29.6853 43.713C34.0723 43.6868 37.645 47.2595 37.645 51.6728Z" fill="#E3DBF4"/>
</g>
<g id="Group_10">
<path id="Vector_13" d="M75.6046 46.6816H45.3682V48.3103H75.6046V46.6816Z" fill="#E3DBF4"/>
<path id="Vector_14" d="M91.524 50.7012H45.3682V56.6644H91.524V50.7012Z" fill="#E3DBF4"/>
</g>
</g>
</g>
<g id="Group_11">
<g id="Group_12">
<g id="Group_13">
<path id="Vector_15" d="M75.6046 71.5312H45.3682V73.16H75.6046V71.5312Z" fill="#E3DBF4"/>
<path id="Vector_16" d="M91.524 75.5508H45.3682V81.514H91.524V75.5508Z" fill="#E3DBF4"/>
</g>
</g>
</g>
<path id="Vector_17" d="M37.644 76.5222C37.644 80.9093 34.0714 84.482 29.6843 84.482C25.2973 84.482 21.7246 80.9093 21.7246 76.5222C21.7246 72.1352 25.2973 68.5625 29.6843 68.5625C34.0714 68.5625 37.644 72.1352 37.644 76.5222Z" fill="#E3DBF4"/>
<g id="Group_14">
<path id="Vector_18" d="M120 88.8443V103.503C120 105.315 118.529 106.786 116.716 106.786H66.9614C65.1488 106.786 63.6777 105.315 63.6777 103.503V88.8443C63.6777 87.0316 65.1488 85.5605 66.9614 85.5605H116.716C118.529 85.5605 120 87.0316 120 88.8443Z" fill="#8E6ED4"/>
<path id="Vector_19" d="M80.07 96.1732C80.07 99.3256 77.5218 101.874 74.3695 101.874C71.2171 101.874 68.6689 99.3256 68.6689 96.1732C68.6689 93.0209 71.2171 90.4727 74.3695 90.4727C77.5218 90.4727 80.07 93.0209 80.07 96.1732Z" fill="white"/>
</g>
<g id="Group_15">
<path id="Vector_20" d="M102.294 92.127H84.6934V93.887H102.294V92.127Z" fill="white"/>
<path id="Vector_21" d="M114.352 96.0156H84.6934V100.219H114.352V96.0156Z" fill="white"/>
</g>
</g>
</g>
</svg>
