<svg width="24" height="24" viewBox="0 0 24 24" fill="none" xmlns="http://www.w3.org/2000/svg">
<g id="Iconsax/Linear/routing">
<path id="Vector" d="M2.07006 4.60086C2.87006 1.14086 8.08006 1.14086 8.87006 4.60086C9.34006 6.63086 8.05006 8.35086 6.93006 9.42086C6.11006 10.2009 4.82006 10.1909 4.00006 9.42086C2.89006 8.35086 1.60006 6.63086 2.07006 4.60086ZM15.0701 16.6009C15.8701 13.1409 21.1101 13.1409 21.9101 16.6009C22.3801 18.6309 21.0901 20.3509 19.9601 21.4209C19.1401 22.2009 17.8401 22.1909 17.0201 21.4209C15.8901 20.3509 14.6001 18.6309 15.0701 16.6009Z" stroke="#656775" stroke-width="1.5"/>
<path id="Vector_2" d="M12.0002 5H14.6802C16.5302 5 17.3902 7.29 16.0002 8.51L8.01019 15.5C6.62019 16.71 7.48019 19 9.32019 19H12.0002" stroke="#656775" stroke-width="1.5" stroke-linecap="round" stroke-linejoin="round"/>
<path id="Vector_3" d="M5.48584 5.5H5.49784M18.4858 17.5H18.4978" stroke="#656775" stroke-width="2" stroke-linecap="round" stroke-linejoin="round"/>
</g>
</svg>
