<svg width="42" height="42" viewBox="0 0 42 42" fill="none" xmlns="http://www.w3.org/2000/svg">
<g id="Group">
<g id="Group_2">
<path id="XMLID_17_" d="M21 41C9.96553 41 1 32.0345 1 21C1 9.96551 9.96553 1 21 1C32.0345 1 41 9.96551 41 21C41.0862 32.0345 32.1207 41 21 41Z" stroke="#C3C4C5" stroke-miterlimit="10"/>
</g>
<g id="XMLID_12_">
<g id="XMLID_14_">
<path id="XMLID_16_" d="M16.1795 17.0342H12.4727V28.9307H16.1795V17.0342Z" fill="white"/>
<path id="XMLID_15_" d="M14.2841 15.4822C15.4743 15.4822 16.4393 14.5173 16.4393 13.327C16.4393 12.1368 15.4743 11.1719 14.2841 11.1719C13.0938 11.1719 12.1289 12.1368 12.1289 13.327C12.1289 14.5173 13.0938 15.4822 14.2841 15.4822Z" fill="white"/>
</g>
<path id="XMLID_13_" d="M22.0387 22.637C22.0387 20.9991 22.8145 19.9646 24.28 19.9646C25.6593 19.9646 26.2628 20.9129 26.2628 22.637C26.2628 24.3612 26.2628 28.8439 26.2628 28.8439H29.8835C29.8835 28.8439 29.8835 24.5336 29.8835 21.3439C29.8835 18.1543 28.0731 16.6025 25.5731 16.6025C23.0731 16.6025 21.9525 18.5853 21.9525 18.5853V16.9474H18.418V28.8439H21.9525C22.0387 28.9301 22.0387 24.5336 22.0387 22.637Z" fill="white"/>
</g>
</g>
</svg>
