<svg width="24" height="24" viewBox="0 0 24 24" fill="none" xmlns="http://www.w3.org/2000/svg">
<g id="linkedin 1" clip-path="url(#clip0_47_1211)">
<g id="Layer 2">
<g id="linkedin">
<path id="background" d="M20.7273 0H3.27273C1.46525 0 0 1.46525 0 3.27273V20.7273C0 22.5347 1.46525 24 3.27273 24H20.7273C22.5347 24 24 22.5347 24 20.7273V3.27273C24 1.46525 22.5347 0 20.7273 0Z" fill="#0077B5"/>
<g id="icon">
<path id="Vector" d="M8.64548 6.54545C8.64548 6.95001 8.52551 7.34547 8.30075 7.68185C8.076 8.01822 7.75654 8.28039 7.38278 8.43521C7.00902 8.59002 6.59775 8.63053 6.20097 8.55161C5.80419 8.47268 5.43973 8.27787 5.15367 7.99181C4.8676 7.70575 4.67279 7.34128 4.59387 6.9445C4.51494 6.54772 4.55545 6.13645 4.71027 5.76269C4.86508 5.38894 5.12725 5.06948 5.46363 4.84472C5.8 4.61996 6.19547 4.5 6.60002 4.5C7.14251 4.5 7.66278 4.7155 8.04638 5.0991C8.42997 5.4827 8.64548 6.00297 8.64548 6.54545Z" fill="white"/>
<path id="Vector_2" d="M8.18185 9.95454V18.9914C8.18221 19.058 8.16939 19.1241 8.14412 19.1858C8.11886 19.2475 8.08165 19.3036 8.03464 19.3509C7.98763 19.3981 7.93173 19.4356 7.87018 19.4612C7.80862 19.4868 7.74261 19.5 7.67594 19.5H5.52003C5.45336 19.5002 5.38732 19.4872 5.32569 19.4617C5.26407 19.4363 5.20807 19.399 5.16093 19.3518C5.11379 19.3047 5.07644 19.2487 5.05101 19.1871C5.02558 19.1254 5.01258 19.0594 5.01276 18.9927V9.95454C5.01276 9.82 5.0662 9.69097 5.16134 9.59584C5.25647 9.50071 5.38549 9.44727 5.52003 9.44727H7.67594C7.81024 9.44763 7.93892 9.50123 8.03376 9.59632C8.12859 9.69142 8.18185 9.82024 8.18185 9.95454Z" fill="white"/>
<path id="Vector_3" d="M19.4509 14.6587V19.0332C19.4511 19.0945 19.4392 19.1553 19.4158 19.2119C19.3924 19.2686 19.3581 19.3201 19.3147 19.3634C19.2714 19.4068 19.2199 19.4411 19.1632 19.4645C19.1066 19.4878 19.0459 19.4998 18.9846 19.4996H16.6664C16.6051 19.4998 16.5444 19.4878 16.4877 19.4645C16.431 19.4411 16.3795 19.4068 16.3362 19.3634C16.2929 19.3201 16.2585 19.2686 16.2351 19.2119C16.2118 19.1553 16.1998 19.0945 16.2 19.0332V14.7937C16.2 14.161 16.3855 12.0228 14.5459 12.0228C13.1209 12.0228 12.8305 13.486 12.7732 14.1432V19.0332C12.7732 19.1558 12.725 19.2734 12.639 19.3606C12.553 19.4479 12.4362 19.4978 12.3137 19.4996H10.0746C10.0134 19.4996 9.9528 19.4875 9.8963 19.4641C9.83979 19.4406 9.78847 19.4062 9.74527 19.3629C9.70208 19.3196 9.66785 19.2682 9.64456 19.2116C9.62128 19.155 9.60938 19.0944 9.60956 19.0332V9.9146C9.60938 9.85342 9.62128 9.79281 9.64456 9.73624C9.66785 9.67966 9.70208 9.62824 9.74527 9.58492C9.78847 9.54159 9.83979 9.50722 9.8963 9.48376C9.9528 9.46031 10.0134 9.44824 10.0746 9.44824H12.3137C12.4373 9.44824 12.556 9.49737 12.6434 9.58483C12.7309 9.67229 12.78 9.79091 12.78 9.9146V10.7028C13.3091 9.90915 14.0932 9.29688 15.7664 9.29688C19.4727 9.29688 19.4509 12.7578 19.4509 14.6587Z" fill="white"/>
</g>
</g>
</g>
</g>
<defs>
<clipPath id="clip0_47_1211">
<rect width="24" height="24" fill="white"/>
</clipPath>
</defs>
</svg>
