<svg width="33" height="33" viewBox="0 0 33 33" fill="none" xmlns="http://www.w3.org/2000/svg">
<g id="XMLID_72_">
<path id="XMLID_78_" d="M26.3292 32.8262H5.73841C2.56541 32.8262 0 30.2608 0 27.0878V6.56458C0 3.39158 2.56541 0.826172 5.73841 0.826172H26.3292C29.5022 0.826172 32.0676 3.39158 32.0676 6.56458V27.1553C32.0676 30.2608 29.5022 32.8262 26.3292 32.8262Z" fill="#8E6ED4" fill-opacity="0.1"/>
<g id="XMLID_73_">
<g id="XMLID_75_">
<path id="XMLID_77_" d="M12.1518 13.2495H8.84375V23.9837H12.1518V13.2495Z" fill="#C4C5CA"/>
<path id="XMLID_76_" d="M10.4642 11.8316C11.5454 11.8316 12.422 10.9551 12.422 9.87383C12.422 8.79256 11.5454 7.91602 10.4642 7.91602C9.3829 7.91602 8.50635 8.79256 8.50635 9.87383C8.50635 10.9551 9.3829 11.8316 10.4642 11.8316Z" fill="#C4C5CA"/>
</g>
<path id="XMLID_74_" d="M17.4171 18.3799C17.4171 16.8946 18.0922 15.9495 19.4425 15.9495C20.6577 15.9495 21.2653 16.8271 21.2653 18.3799C21.2653 19.9326 21.2653 23.9832 21.2653 23.9832H24.5733C24.5733 23.9832 24.5733 20.0676 24.5733 17.2322C24.5733 14.3967 22.953 12.979 20.6577 12.979C18.3623 12.979 17.4171 14.7343 17.4171 14.7343V13.3166H14.2441V24.0508H17.4171C17.4171 23.9832 17.4171 20.0001 17.4171 18.3799Z" fill="#C4C5CA"/>
</g>
</g>
</svg>
