<svg width="254" height="56" viewBox="0 0 254 56" fill="none" xmlns="http://www.w3.org/2000/svg">
<rect width="252.318" height="56" transform="translate(0.84082)" fill="white"/>
<path d="M28.4925 17.3246V24.7446H37.5098V31.2578H28.4925V38.6778H42.8075V45.2387H21.2603V10.7637H42.8075V17.3246H28.4925Z" fill="#8E6ED4"/>
<path d="M101.907 22.7807C101.907 16.1529 96.5133 10.7598 89.8856 10.7598H76.6206V45.2379H83.8529V34.7984H85.6442L94.7888 45.2379H104.36L94.302 33.952C98.8774 32.1225 101.903 27.722 101.903 22.7807H101.907ZM83.8561 17.2761H88.9311C91.9665 17.2761 94.4356 19.7452 94.4356 22.7807C94.4356 25.8161 91.9665 28.2852 88.9311 28.2852H83.8561V17.2761Z" fill="#8E6ED4"/>
<path d="M124.994 32.4979L115.735 10.7598H106.797V45.2379H114.029V23.4934L123.336 45.2379H132.274V10.7598H124.994V32.4979Z" fill="#8E6ED4"/>
<path d="M142.262 10.7598H135.029V45.2379H155.142V38.677H142.262V10.7598Z" fill="#12152B"/>
<path d="M201.994 27.2614C203.356 25.4637 204.103 23.2619 204.103 21.0123C204.103 15.3614 199.506 10.7637 193.855 10.7637H179.68L181.417 17.3246H193.183C195.217 17.3246 196.871 18.9791 196.871 21.0091C196.871 23.0391 195.217 24.7446 193.183 24.7446H183.409L185.207 31.2578H194.574C196.607 31.2578 198.261 32.9314 198.261 34.9932C198.261 37.055 196.607 38.6778 194.574 38.6778H187.195L188.99 45.2387H195.245C200.921 45.2387 205.541 40.6409 205.541 34.99C205.541 32.0023 204.256 29.2119 201.997 27.2582L201.994 27.2614Z" fill="#12152B"/>
<path d="M221.651 24.8941C218.173 23.6055 215.17 22.495 215.17 20.29C215.17 17.8877 217.601 16.7964 219.86 16.7964C224.095 16.7964 224.983 19.6091 224.983 21.9668V22.4473H232.263V21.9668C232.263 15.1959 226.844 10.2832 219.379 10.2832C212.748 10.2832 207.934 14.4927 207.934 20.29C207.934 26.8414 213.919 29.0018 218.727 30.7391C222.364 32.0532 225.508 33.1891 225.508 35.7091C225.508 37.7009 223.283 39.2027 220.337 39.2027C216.064 39.2027 215.167 36.39 215.167 34.0323V33.5518H207.934V34.0323C207.934 40.9114 213.232 45.7159 220.814 45.7159C227.611 45.7159 232.74 41.4141 232.74 35.7091C232.74 29.0018 226.589 26.7237 221.648 24.8941H221.651Z" fill="#12152B"/>
<path d="M166.676 10.7598L157.366 45.2379H164.684L166.227 39.1861H176.396L177.971 45.2379H185.818L176.508 10.7598H166.676ZM171.261 19.4366L174.691 32.6252H167.901L171.261 19.4366Z" fill="#12152B"/>
<path d="M54.6503 10.7598L45.3403 45.2379H52.6585L54.2017 39.1861H64.3708L65.9458 45.2379H73.7922L64.4821 10.7598H54.6503ZM59.2353 19.4366L62.6653 32.6252H55.8753L59.2353 19.4366Z" fill="#8E6ED4"/>
</svg>
