<svg width="24" height="24" viewBox="0 0 24 24" fill="none" xmlns="http://www.w3.org/2000/svg">
<g id="Iconsax/Linear/profile2user">
<path id="Vector" d="M16.4102 4.00072C18.3502 4.00072 19.9102 5.57072 19.9102 7.50072C19.9102 9.39072 18.4102 10.9307 16.5402 11.0007C16.4538 10.9907 16.3666 10.9907 16.2802 11.0007M18.3402 20.0007C19.0602 19.8507 19.7402 19.5607 20.3002 19.1307C21.8602 17.9607 21.8602 16.0307 20.3002 14.8607C19.7502 14.4407 19.0802 14.1607 18.3702 14.0007M9.16021 10.8707C9.06021 10.8607 8.94021 10.8607 8.83021 10.8707C7.68242 10.8318 6.59486 10.3476 5.79784 9.52068C5.00083 8.6938 4.55696 7.58918 4.56021 6.44072C4.56021 3.99072 6.54022 2.00072 9.00022 2.00072C10.1765 1.97951 11.3129 2.42641 12.1597 3.24314C13.0064 4.05986 13.494 5.17949 13.5152 6.35572C13.5364 7.53196 13.0895 8.66845 12.2728 9.51517C11.4561 10.3619 10.3364 10.8495 9.16021 10.8707ZM4.16021 14.5607C1.74021 16.1807 1.74021 18.8207 4.16021 20.4307C6.91021 22.2707 11.4202 22.2707 14.1702 20.4307C16.5902 18.8107 16.5902 16.1707 14.1702 14.5607C11.4302 12.7307 6.92021 12.7307 4.16021 14.5607Z" stroke="#656775" stroke-width="1.5" stroke-linecap="round" stroke-linejoin="round"/>
</g>
</svg>
