<svg width="25" height="24" viewBox="0 0 25 24" fill="none" xmlns="http://www.w3.org/2000/svg">
<g id="vuesax/linear/menu">
<g id="vuesax/linear/menu_2">
<g id="menu">
<path id="Union" fill-rule="evenodd" clip-rule="evenodd" d="M2.46973 7.00012C2.46973 6.58591 2.80551 6.25012 3.21973 6.25012H21.2197C21.6339 6.25012 21.9697 6.58591 21.9697 7.00012C21.9697 7.41434 21.6339 7.75012 21.2197 7.75012H3.21973C2.80551 7.75012 2.46973 7.41434 2.46973 7.00012ZM2.46973 12.0001C2.46973 11.5859 2.80551 11.2501 3.21973 11.2501H21.2197C21.6339 11.2501 21.9697 11.5859 21.9697 12.0001C21.9697 12.4143 21.6339 12.7501 21.2197 12.7501H3.21973C2.80551 12.7501 2.46973 12.4143 2.46973 12.0001ZM3.21973 16.2501C2.80551 16.2501 2.46973 16.5859 2.46973 17.0001C2.46973 17.4143 2.80551 17.7501 3.21973 17.7501H21.2197C21.6339 17.7501 21.9697 17.4143 21.9697 17.0001C21.9697 16.5859 21.6339 16.2501 21.2197 16.2501H3.21973Z" fill="#DEDEE0"/>
</g>
</g>
</g>
</svg>
