<svg width="20" height="20" viewBox="0 0 20 20" fill="none" xmlns="http://www.w3.org/2000/svg">
<g id="Show" clip-path="url(#clip0_771_16)">
<path id="Vector" d="M12.1083 7.89088L7.89167 12.1075C7.33251 11.5484 7.01837 10.79 7.01837 9.99921C7.01837 9.60766 7.09549 9.21994 7.24533 8.85819C7.39518 8.49644 7.6148 8.16775 7.89167 7.89088C8.16854 7.61401 8.49723 7.39438 8.85898 7.24454C9.22073 7.0947 9.60845 7.01758 10 7.01758C10.7908 7.01758 11.5492 7.33171 12.1083 7.89088Z" stroke="#9496A0" stroke-width="1.5" stroke-linecap="round" stroke-linejoin="round"/>
<path id="Vector_2" d="M14.85 4.80742C13.3917 3.70742 11.725 3.10742 9.99999 3.10742C7.05833 3.10742 4.31666 4.84076 2.40833 7.84076C1.65833 9.01576 1.65833 10.9908 2.40833 12.1658C3.06666 13.1991 3.83333 14.0908 4.66666 14.8074M7.01666 16.2741C7.96666 16.6741 8.97499 16.8908 9.99999 16.8908C12.9417 16.8908 15.6833 15.1574 17.5917 12.1574C18.3417 10.9824 18.3417 9.00742 17.5917 7.83242C17.3167 7.39909 17.0167 6.99076 16.7083 6.60742" stroke="#9496A0" stroke-width="1.5" stroke-linecap="round" stroke-linejoin="round"/>
<path id="Vector_3" d="M12.925 10.5827C12.8121 11.164 12.5281 11.6983 12.1094 12.117C11.6906 12.5358 11.1563 12.8198 10.575 12.9327M7.89169 12.1077L1.66669 18.3327M18.3334 1.66602L12.1084 7.89102" stroke="#9496A0" stroke-width="1.5" stroke-linecap="round" stroke-linejoin="round"/>
</g>
<defs>
<clipPath id="clip0_771_16">
<rect width="20" height="20" fill="white"/>
</clipPath>
</defs>
</svg>
