<svg width="600" height="394" viewBox="0 0 600 394" fill="none" xmlns="http://www.w3.org/2000/svg">
<g clip-path="url(#clip0_177_3502)">
<path d="M376.026 124.976L348.489 109.037C347.24 108.323 346.557 107.342 346.557 106.271C346.557 105.201 347.24 104.219 348.46 103.506L405.435 70.8843C406.357 70.3491 406.863 69.6651 406.863 68.9514C406.863 68.2378 406.328 67.5241 405.406 66.9888L361.425 41.9504C359.284 40.7311 355.834 40.7014 353.723 41.9206L306.65 69.1299L306.174 68.2972L353.277 41.1177C355.656 39.7498 359.522 39.7498 361.901 41.1177L405.882 66.1562C407.13 66.8699 407.814 67.8809 407.814 68.9514C407.814 70.022 407.13 71.0033 405.911 71.717L348.935 104.338C348.014 104.874 347.508 105.558 347.508 106.271C347.508 106.985 348.043 107.699 348.965 108.234L376.502 124.173L376.026 124.976Z" fill="#A1CCE6"/>
<path d="M379.683 129.764C378.375 129.764 377.067 129.466 376.056 128.871C374.985 128.247 374.42 127.414 374.42 126.492C374.42 125.571 374.985 124.738 376.056 124.143C378.078 122.984 381.259 122.984 383.282 124.143C384.352 124.768 384.917 125.6 384.917 126.522C384.917 127.444 384.352 128.277 383.282 128.871C382.27 129.466 380.962 129.764 379.683 129.764ZM376.472 124.976C375.728 125.392 375.312 125.957 375.312 126.522C375.312 127.087 375.728 127.652 376.502 128.069C378.256 129.08 381.051 129.08 382.806 128.069C383.549 127.652 383.965 127.087 383.965 126.522C383.965 125.957 383.549 125.392 382.776 124.976C381.051 123.965 378.226 123.965 376.472 124.976Z" fill="#A1CCE6"/>
<path d="M213.659 348.485C215.949 349.823 215.919 353.123 213.659 354.432L156.416 387.797C151.39 390.681 145.235 390.681 140.209 387.797L20.4291 317.261C18.0204 315.863 18.0204 312.414 20.4291 311.016L83.2927 274.41C84.6309 273.637 86.2961 273.637 87.664 274.41L213.659 348.485Z" fill="url(#paint0_linear_177_3502)"/>
<path d="M296.565 106.249L263.468 124.864C260.554 126.53 256.986 126.53 254.101 124.864L214.284 101.997C212.886 101.194 212.886 99.2014 214.284 98.3985L248.927 78.8613L296.565 106.249Z" fill="url(#paint1_linear_177_3502)"/>
<path d="M65.7481 314.493L1.93289 277.679C0.683947 276.936 0 275.954 0 274.884C0 273.813 0.683947 272.832 1.90316 272.118L84.6905 224.212C87.0694 222.844 90.9352 222.844 93.3142 224.212L112.673 235.393C114.814 236.613 118.263 236.642 120.375 235.393L224.037 175.444C225.316 174.7 226.951 174.671 228.23 175.414L238.073 180.915L237.597 181.748L227.784 176.247C226.773 175.682 225.524 175.682 224.513 176.276L120.88 236.226C118.501 237.594 114.635 237.594 112.257 236.226L92.8979 225.045C90.7568 223.826 87.3073 223.796 85.196 225.045L2.37895 272.951C1.4571 273.486 0.921842 274.17 0.921842 274.884C0.921842 275.598 1.4571 276.311 2.37895 276.847L66.1942 313.691L65.7481 314.493Z" fill="#A1CCE6"/>
<path d="M68.9299 319.045C67.6215 319.045 66.3131 318.747 65.302 318.153C64.2315 317.528 63.6665 316.696 63.6665 315.774C63.6665 314.852 64.2315 314.019 65.302 313.424C67.3241 312.265 70.506 312.265 72.5281 313.424C73.5986 314.049 74.1636 314.882 74.1636 315.803C74.1636 316.725 73.5986 317.558 72.5281 318.153C71.5468 318.747 70.2383 319.045 68.9299 319.045ZM68.8704 313.484C67.7404 313.484 66.6105 313.722 65.7481 314.227C65.0047 314.644 64.5883 315.209 64.5883 315.774C64.5883 316.339 65.0047 316.904 65.7778 317.32C67.5323 318.331 70.3275 318.331 72.082 317.32C72.8254 316.904 73.2418 316.339 73.2418 315.774C73.2418 315.209 72.8254 314.644 72.0523 314.227C71.1602 313.752 70.0302 313.484 68.8704 313.484Z" fill="#A1CCE6"/>
<path d="M318.125 85.1364C318.125 86.1772 317.619 87.2477 316.668 88.229C316.578 88.3183 316.519 88.3777 316.43 88.4669C315.954 88.9427 315.359 89.359 314.645 89.7754L313.218 90.608L312.296 91.1433L287.169 105.655C282.976 108.064 276.642 108.331 273.014 106.22L247.5 91.5001L246.399 90.8459L243.277 89.0319C242.98 88.8535 242.742 88.7048 242.504 88.4967C242.415 88.4372 242.355 88.3777 242.266 88.3183C241.374 87.5748 240.928 86.7125 240.839 85.7906V85.1661C240.868 84.6903 241.017 84.2443 241.255 83.7685C241.374 83.5604 241.493 83.3522 241.641 83.144C242.206 82.3411 243.099 81.5382 244.318 80.8543L271.765 65.0045C275.958 62.5958 282.292 62.3282 285.92 64.4098L315.656 81.5977C316.37 82.014 316.935 82.4898 317.351 83.0251C317.47 83.1738 317.589 83.3522 317.679 83.5306C318.006 84.0956 318.125 84.7201 318.125 85.1364Z" fill="url(#paint2_linear_177_3502)"/>
<path d="M318.125 85.1348V91.0821C318.125 92.2121 317.559 93.3719 316.429 94.4127C315.954 94.8885 315.359 95.3048 314.645 95.6914L313.218 96.524L287.198 111.541C283.005 113.98 276.671 114.217 273.043 112.106L246.429 96.7619L243.307 94.9479C243.009 94.7993 242.771 94.6208 242.533 94.4424C241.522 93.6395 240.957 92.7177 240.868 91.7066V85.7592C240.957 86.6811 241.433 87.5435 242.296 88.2869C242.385 88.3464 242.444 88.4058 242.533 88.4653C242.771 88.6437 243.009 88.8221 243.307 89.0006L246.429 90.8145L247.529 91.4687L273.043 106.188C276.671 108.3 283.005 108.032 287.198 105.623L312.326 91.1119L313.248 90.5766L314.675 89.744C315.359 89.3574 315.954 88.9114 316.459 88.4356C316.548 88.3464 316.608 88.2869 316.697 88.1977C317.619 87.2461 318.125 86.1756 318.125 85.1348Z" fill="url(#paint3_linear_177_3502)"/>
<path d="M296.773 85.1357C296.803 86.0575 296.149 87.0388 294.811 87.812L293.324 88.6744L283.778 94.2054C281.429 95.5733 277.891 95.722 275.839 94.5325L265.579 88.6149L263.528 87.4254C262.576 86.8604 262.13 86.117 262.16 85.3141V39.8167C262.16 40.5601 262.606 41.2738 263.528 41.809L265.579 42.9688L275.839 48.8864C277.861 50.0461 281.429 49.9272 283.778 48.5593L293.324 43.0282L294.811 42.1659C296.03 41.4522 296.714 40.5601 296.744 39.668L296.773 85.1357Z" fill="url(#paint4_linear_177_3502)"/>
<path d="M296.773 39.7277C296.714 40.6198 296.06 41.5119 294.841 42.2256L293.354 43.0879L283.808 48.619C281.459 49.9869 277.92 50.1356 275.868 48.9461L265.609 43.0285L263.557 41.8687C262.636 41.3335 262.19 40.6198 262.19 39.8764C262.19 39.8466 262.19 39.8169 262.19 39.7871C262.219 38.9248 262.903 38.0029 264.122 37.2892L275.155 30.9256C277.504 29.5874 281.043 29.409 283.095 30.5985L295.406 37.7056C296.387 38.1814 296.833 38.9545 296.773 39.7277Z" fill="url(#paint5_linear_177_3502)"/>
<path d="M238.489 139.347L205.422 157.962C202.508 159.627 198.939 159.627 196.055 157.962L156.237 135.094C154.84 134.291 154.84 132.299 156.237 131.496L190.881 111.959L238.489 139.347Z" fill="url(#paint6_linear_177_3502)"/>
<path d="M267.453 114.07C267.453 115.111 266.947 116.181 265.996 117.163C265.907 117.252 265.847 117.311 265.758 117.401C265.282 117.876 264.687 118.293 263.974 118.709L262.576 119.542L261.654 120.077L236.527 134.588C232.334 136.997 226 137.265 222.372 135.153L196.887 120.434L195.787 119.779L192.665 117.966C192.367 117.787 192.13 117.638 191.892 117.43C191.802 117.371 191.743 117.311 191.654 117.252C190.762 116.508 190.316 115.646 190.226 114.724V114.1C190.256 113.624 190.405 113.178 190.643 112.702C190.762 112.494 190.881 112.286 191.029 112.078C191.594 111.275 192.486 110.472 193.706 109.788L221.153 93.9381C225.346 91.5294 231.68 91.2618 235.307 93.3434L265.044 110.531C265.758 110.948 266.323 111.423 266.739 111.959C266.858 112.107 266.977 112.286 267.066 112.464C267.364 113.029 267.453 113.654 267.453 114.07Z" fill="url(#paint7_linear_177_3502)"/>
<path d="M267.453 114.07V120.018C267.453 121.148 266.888 122.307 265.758 123.348C265.282 123.824 264.687 124.24 263.974 124.627L262.576 125.489L236.556 140.506C232.363 142.945 226.03 143.183 222.402 141.071L195.787 125.727L192.665 123.913C192.367 123.765 192.13 123.586 191.892 123.408C190.881 122.605 190.316 121.683 190.226 120.672V114.725C190.316 115.646 190.791 116.509 191.654 117.252C191.743 117.312 191.802 117.371 191.892 117.431C192.13 117.609 192.367 117.787 192.665 117.966L195.787 119.78L196.887 120.434L222.402 135.154C226.03 137.265 232.363 136.997 236.556 134.589L261.684 120.077L262.606 119.542L264.033 118.709C264.717 118.323 265.312 117.877 265.817 117.401C265.907 117.312 265.966 117.252 266.055 117.163C266.977 116.182 267.453 115.111 267.453 114.07Z" fill="url(#paint8_linear_177_3502)"/>
<path d="M246.132 114.071C246.162 114.993 245.507 115.974 244.169 116.747L242.682 117.61L233.137 123.111C230.788 124.479 227.249 124.628 225.197 123.438L214.938 117.521L212.886 116.331C211.934 115.766 211.488 115.023 211.518 114.22V87.635C211.518 88.3784 211.964 89.0921 212.886 89.6274L214.938 90.7871L225.197 96.7048C227.219 97.8645 230.788 97.7456 233.137 96.3777L242.682 90.8466L244.169 89.9842C245.388 89.2705 246.072 88.3784 246.102 87.4863L246.132 114.071Z" fill="url(#paint9_linear_177_3502)"/>
<path d="M246.102 87.5738C246.043 88.4659 245.388 89.358 244.169 90.0717L242.682 90.9341L233.137 96.4354C230.788 97.8033 227.249 97.952 225.197 96.7625L214.938 90.8449L212.886 89.6851C211.964 89.1499 211.518 88.4362 211.518 87.6928C211.518 87.663 211.518 87.6333 211.518 87.6036C211.548 86.7412 212.232 85.8193 213.451 85.1057L224.483 78.742C226.833 77.4038 230.371 77.2254 232.423 78.4149L244.734 85.522C245.715 86.0275 246.161 86.8007 246.102 87.5738Z" fill="url(#paint10_linear_177_3502)"/>
<path d="M495.148 195.491L420.092 239.234C414.055 242.713 406.621 242.713 400.585 239.234L324.31 194.956C321.425 193.291 321.425 189.127 324.31 187.462L402.607 141.846L495.148 195.491Z" fill="url(#paint11_linear_177_3502)"/>
<path d="M515.309 128.017C513.525 121.416 508.232 115.111 499.459 110.026C477.514 97.3584 442.038 97.299 420.211 109.878C411.379 114.963 406.145 121.356 404.48 127.987C403.856 130.545 403.737 133.132 404.153 135.719C404.718 139.139 406.235 142.529 408.673 145.711C411.409 149.309 415.334 152.669 420.449 155.613C442.395 168.281 477.871 168.34 499.697 155.762C504.872 152.788 508.797 149.368 511.503 145.711C513.793 142.648 515.19 139.406 515.726 136.106C516.172 133.429 516.023 130.693 515.309 128.017ZM510.313 133.043C510.313 137.473 508.083 141.815 503.92 145.74C501.987 147.554 499.608 149.279 496.843 150.885C487.178 156.446 474.213 159.538 460.296 159.538C446.231 159.538 433.087 156.416 423.274 150.766C420.568 149.22 418.248 147.525 416.345 145.77C411.944 141.756 409.595 137.236 409.595 132.686C409.595 132.418 409.595 132.151 409.625 131.883C409.714 130.604 409.952 129.326 410.398 128.077C412.093 123.259 416.464 118.68 423.036 114.873C432.7 109.283 445.666 106.22 459.582 106.22C473.648 106.22 486.792 109.342 496.605 114.992C503.147 118.769 507.518 123.289 509.332 128.047C509.838 129.415 510.165 130.812 510.254 132.21C510.284 132.448 510.313 132.745 510.313 133.043Z" fill="url(#paint12_linear_177_3502)"/>
<path d="M508.827 189.187C482.004 205.185 438.35 205.126 411.349 189.038C391.664 177.292 386.251 160.283 395.202 145.711L404.51 127.988C403.885 130.546 403.766 133.133 404.183 135.72C404.748 139.14 406.264 142.53 408.703 145.711C411.439 149.31 415.364 152.67 420.479 155.614C442.424 168.282 477.9 168.341 499.727 155.763C504.901 152.789 508.827 149.369 511.533 145.711C513.822 142.649 515.22 139.407 515.755 136.106C516.201 133.4 516.053 130.694 515.339 128.018L524.439 145.711V145.741C533.687 160.372 528.512 177.47 508.827 189.187Z" fill="url(#paint13_linear_177_3502)"/>
<path d="M482.361 186.895C483.194 188.441 482.272 190.374 480.547 190.701C474.154 191.98 467.344 192.634 460.356 192.634C452.684 192.634 445.22 191.831 438.261 190.315C436.566 189.928 435.674 188.055 436.507 186.508L443.079 174.049C443.614 173.067 444.684 172.532 445.785 172.681C450.483 173.335 455.36 173.692 460.296 173.692C464.638 173.692 468.89 173.424 473.053 172.919C474.154 172.77 475.194 173.335 475.7 174.287L482.361 186.895Z" fill="url(#paint14_linear_177_3502)"/>
<path d="M510.313 133.042C510.313 136.432 509.005 139.793 506.507 142.945C505.764 143.896 504.901 144.818 503.95 145.71C502.017 147.524 499.638 149.249 496.872 150.855C487.208 156.415 474.243 159.508 460.326 159.508C446.26 159.508 433.117 156.386 423.304 150.736C420.597 149.189 418.278 147.494 416.375 145.74C415.245 144.729 414.264 143.658 413.431 142.588C410.933 139.406 409.625 136.046 409.625 132.626C409.625 132.358 409.625 132.091 409.654 131.823C409.744 130.544 409.981 129.266 410.427 128.017C412.122 123.199 416.494 118.62 423.066 114.814C432.73 109.223 445.695 106.16 459.612 106.16C473.678 106.16 486.821 109.283 496.635 114.933C503.177 118.709 507.548 123.229 509.362 127.987C509.867 129.355 510.195 130.753 510.284 132.15C510.284 132.448 510.313 132.745 510.313 133.042Z" fill="url(#paint15_linear_177_3502)"/>
<path d="M510.284 26.674C510.284 26.4361 510.284 26.2279 510.254 25.99C510.165 24.5924 509.867 23.1948 509.332 21.8269C507.518 17.069 503.147 12.549 496.605 8.77238C486.792 3.12237 473.648 0 459.582 0C445.666 0 432.671 3.0629 423.036 8.65343C416.434 12.4598 412.093 17.0392 410.398 21.8566C409.952 23.1056 409.684 24.3842 409.625 25.6629C409.595 25.9306 409.595 26.1982 409.595 26.4658C409.595 26.674 409.625 26.8524 409.625 27.0606V131.824C409.595 132.091 409.595 132.359 409.595 132.626C409.595 136.046 410.903 139.406 413.401 142.588C414.234 143.659 415.215 144.7 416.345 145.74C418.278 147.495 420.597 149.19 423.274 150.736C433.087 156.386 446.231 159.509 460.296 159.509C474.213 159.509 487.208 156.446 496.843 150.855C499.608 149.249 501.957 147.525 503.92 145.711C504.872 144.789 505.734 143.867 506.477 142.945C508.975 139.793 510.284 136.433 510.284 133.043C510.284 133.013 510.284 132.954 510.284 132.924V26.674Z" fill="url(#paint16_linear_177_3502)"/>
<path d="M506.477 142.946C505.734 143.897 504.872 144.819 503.92 145.711C501.987 147.525 499.608 149.25 496.843 150.856C487.178 156.416 474.213 159.509 460.296 159.509C446.231 159.509 433.087 156.387 423.274 150.737C420.568 149.19 418.248 147.495 416.345 145.741C415.215 144.73 414.234 143.659 413.401 142.589C415.661 139.734 418.903 137.058 423.036 134.679C432.7 129.088 445.666 126.025 459.582 126.025C473.648 126.025 486.792 129.148 496.605 134.798C500.857 137.236 504.188 140.002 506.477 142.946Z" fill="url(#paint17_linear_177_3502)"/>
<path d="M421.133 95.5425H421.103V94.6504C421.103 94.9478 421.103 95.2451 421.133 95.5425Z" fill="url(#paint18_linear_177_3502)"/>
<path d="M487.505 110.71C472.399 119.452 447.777 119.393 432.552 110.621C425.326 106.428 421.49 101.016 421.133 95.5737C421.103 95.2763 421.103 94.979 421.103 94.6816V82.0137C421.103 84.125 421.609 86.2661 422.679 88.3476C423.958 90.905 426.069 93.3732 428.954 95.5737C430.054 96.4361 431.243 97.2092 432.552 97.9824C447.777 106.755 472.369 106.814 487.505 98.0716C488.873 97.2687 490.122 96.4361 491.252 95.5737C493.988 93.4326 495.98 91.0834 497.229 88.6153C498.092 86.9203 498.597 85.1955 498.746 83.4708V93.8787C499.251 99.9153 495.505 106.071 487.505 110.71Z" fill="url(#paint19_linear_177_3502)"/>
<path d="M498.746 83.4405C498.567 85.1653 498.062 86.9197 497.229 88.585C495.98 91.0532 493.988 93.4024 491.252 95.5434C490.122 96.4058 488.873 97.2384 487.505 98.0413C472.399 106.784 447.777 106.724 432.552 97.9521C431.243 97.179 430.024 96.4058 428.954 95.5434C426.069 93.3429 423.958 90.8747 422.679 88.3174C421.638 86.2655 421.103 84.1245 421.103 81.9834C421.103 81.8942 421.103 81.805 421.103 81.686C421.222 76.0658 424.969 70.4752 432.373 66.2229C447.48 57.4802 472.102 57.5397 487.327 66.3121C495.475 71.0402 499.281 77.3147 498.746 83.4405Z" fill="url(#paint20_linear_177_3502)"/>
<path d="M473.826 76.6291C472.042 76.4804 470.228 76.6886 468.444 77.2238C468.95 76.3317 469.009 75.4694 468.652 74.607C468.266 73.7744 467.493 73.0012 466.333 72.3172C464.43 71.217 462.14 70.7709 459.464 71.0386C457.204 71.2467 454.884 71.9604 452.475 73.1796L448.966 71.1575L444.803 73.5662L448.253 75.5586L445.695 77.0454L442.246 75.053L438.053 77.4617L441.503 79.4541L439.361 80.6733L436.745 82.1899L440.938 84.5986L443.554 83.082L459.226 92.122L456.609 93.6386L460.802 96.0473L465.56 93.3115L467.463 94.4117L471.656 92.0031L469.753 90.9028L471.834 89.6836L472.31 89.416L474.213 90.5162L478.376 88.1075L476.443 86.9775C479.179 85.342 480.725 83.7659 481.201 82.3088C481.677 80.703 480.874 79.3054 478.793 78.0862C477.276 77.2833 475.611 76.8075 473.826 76.6291ZM454.527 76.7778C455.33 76.3317 456.103 75.9749 456.847 75.7667C457.323 75.5883 457.858 75.4694 458.334 75.4099C459.493 75.2612 460.564 75.4694 461.515 76.0344C462.467 76.5696 462.794 77.1644 462.586 77.878C462.497 78.1457 462.318 78.4728 461.991 78.7404C461.605 79.1567 461.01 79.6028 460.207 80.0786L458.096 81.2978L455.538 82.7846L454.706 83.2604L449.056 79.9894L451.97 78.2944L452.446 78.0267L454.527 76.7778ZM473.708 82.963C473.499 83.4686 473.024 84.0633 472.191 84.6283C471.864 84.8365 471.566 85.0446 471.18 85.2825L468.117 87.0667L467.641 87.3344L464.727 89.0294L458.78 85.6096L459.612 85.1338L462.17 83.647L465.233 81.8628C465.619 81.6249 466.006 81.4465 466.363 81.268C468.801 80.1083 470.853 80.0488 472.578 81.0599C473.618 81.6249 474.005 82.2494 473.708 82.963Z" fill="white"/>
<path d="M512.217 167.538C513.168 169.59 512.484 172.177 510.67 173.277C508.856 174.378 506.626 173.604 505.675 171.553C504.723 169.501 505.407 166.914 507.221 165.813C509.035 164.713 511.265 165.486 512.217 167.538Z" fill="url(#paint21_linear_177_3502)"/>
<path d="M434.366 333.586L432.492 332.516C425.831 328.68 426.664 321.959 434.366 317.529L461.456 302.006L487.446 317.023L460.356 332.546C452.654 336.947 441.027 337.452 434.366 333.586Z" fill="url(#paint22_linear_177_3502)"/>
<path d="M221.182 91.9743L220.588 91.6472C218.506 90.4577 218.774 88.3464 221.182 86.9785L229.152 82.4287C229.449 82.2503 229.806 82.2503 230.103 82.4287L237.002 86.4135C237.329 86.5919 237.329 87.0379 237.002 87.2461L229.271 91.6769C226.862 93.0448 223.264 93.1935 221.182 91.9743Z" fill="url(#paint23_linear_177_3502)"/>
<path d="M271.586 44.1579L270.992 43.8308C268.91 42.6413 269.178 40.53 271.586 39.1621L279.556 34.6123C279.853 34.4339 280.21 34.4339 280.507 34.6123L287.406 38.5971C287.733 38.7755 287.733 39.2215 287.406 39.4297L279.675 43.8605C277.296 45.1987 273.668 45.3473 271.586 44.1579Z" fill="url(#paint24_linear_177_3502)"/>
<path d="M491.49 305.189V310.036C491.52 312.742 489.736 315.478 486.137 317.559C479.001 321.693 467.374 321.663 460.177 317.53C458.393 316.489 457.055 315.299 456.133 314.021C455.241 312.742 454.765 311.404 454.765 310.036V305.1C454.795 307.806 456.609 310.482 460.177 312.564C467.374 316.727 479.001 316.727 486.137 312.593C489.706 310.571 491.49 307.865 491.49 305.189Z" fill="url(#paint25_linear_177_3502)"/>
<path d="M491.49 305.099V305.158C491.49 307.864 489.706 310.541 486.137 312.593C479.001 316.726 467.374 316.696 460.177 312.563C456.609 310.481 454.795 307.805 454.765 305.099C454.735 302.393 456.52 299.657 460.088 297.575C467.225 293.442 478.852 293.472 486.048 297.605C489.646 299.717 491.46 302.423 491.49 305.099Z" fill="url(#paint26_linear_177_3502)"/>
<path d="M477.841 308.221C477.96 307.715 477.781 307.21 477.335 306.704C478.079 306.853 478.793 306.853 479.506 306.764C480.22 306.675 480.844 306.437 481.409 306.11C482.331 305.574 482.688 304.95 482.45 304.177C482.272 303.552 481.647 302.898 480.636 302.214L482.331 301.233L480.309 300.073L478.644 301.025L477.395 300.311L479.06 299.359L477.008 298.17L475.343 299.121L474.302 298.527L473.024 297.783L471.002 298.943L472.28 299.686L464.757 304.028L463.478 303.285L461.456 304.444L463.775 305.782L462.854 306.318L464.905 307.507L465.827 306.972L466.838 307.567L467.076 307.686L466.154 308.221L468.177 309.381L469.098 308.845C470.496 309.618 471.804 310.065 473.024 310.183C474.362 310.332 475.551 310.094 476.562 309.529C477.306 309.172 477.722 308.726 477.841 308.221ZM477.663 302.838C478.049 303.076 478.346 303.285 478.525 303.493C478.674 303.641 478.793 303.76 478.822 303.909C478.941 304.236 478.763 304.533 478.317 304.801C477.871 305.069 477.365 305.158 476.77 305.098C476.533 305.069 476.265 305.009 476.027 304.92C475.67 304.801 475.284 304.652 474.897 304.415L473.886 303.82L472.637 303.106L472.221 302.868L474.956 301.292L476.384 302.125L476.622 302.244L477.663 302.838ZM472.548 308.161C472.131 308.102 471.626 307.983 471.15 307.745C470.972 307.656 470.793 307.567 470.585 307.448L469.098 306.585L468.86 306.466L467.433 305.634L470.288 303.968L470.704 304.206L471.953 304.92L473.44 305.782C473.648 305.901 473.797 305.991 473.945 306.11C474.927 306.793 474.986 307.358 474.154 307.834C473.678 308.161 473.143 308.251 472.548 308.161Z" fill="white"/>
<path d="M491.49 296.862V301.709C491.52 304.415 489.736 307.151 486.137 309.233C479.001 313.366 467.374 313.336 460.177 309.203C458.393 308.162 457.055 306.973 456.133 305.694C455.241 304.415 454.765 303.077 454.765 301.709V296.803C454.795 299.509 456.609 302.185 460.177 304.267C467.374 308.43 479.001 308.43 486.137 304.296C489.706 302.274 491.49 299.568 491.49 296.862Z" fill="url(#paint27_linear_177_3502)"/>
<path d="M491.49 296.802V296.862C491.49 299.568 489.706 302.244 486.137 304.296C479.001 308.429 467.374 308.399 460.177 304.266C456.609 302.184 454.795 299.508 454.765 296.802C454.735 294.096 456.52 291.36 460.088 289.279C467.225 285.145 478.852 285.175 486.048 289.308C489.646 291.39 491.46 294.096 491.49 296.802Z" fill="url(#paint28_linear_177_3502)"/>
<path d="M477.841 299.924C477.96 299.418 477.781 298.913 477.335 298.407C478.079 298.556 478.793 298.556 479.506 298.467C480.22 298.378 480.844 298.14 481.409 297.813C482.331 297.277 482.688 296.653 482.45 295.88C482.272 295.255 481.647 294.601 480.636 293.917L482.331 292.936L480.309 291.776L478.644 292.728L477.395 292.014L479.06 291.062L477.008 289.873L475.343 290.824L474.302 290.23L473.024 289.486L471.001 290.646L472.28 291.389L464.757 295.731L463.478 294.988L461.456 296.147L463.775 297.486L462.854 298.021L464.905 299.21L465.827 298.675L466.838 299.27L467.076 299.389L466.154 299.924L468.176 301.084L469.098 300.548C470.496 301.322 471.804 301.768 473.024 301.887C474.362 302.035 475.551 301.797 476.562 301.232C477.306 300.876 477.722 300.4 477.841 299.924ZM477.663 294.512C478.049 294.75 478.346 294.958 478.525 295.166C478.674 295.315 478.793 295.434 478.822 295.582C478.941 295.909 478.763 296.207 478.317 296.474C477.871 296.742 477.365 296.831 476.77 296.772C476.533 296.742 476.265 296.683 476.027 296.593C475.67 296.475 475.284 296.326 474.897 296.088L473.886 295.493L472.637 294.779L472.221 294.542L474.956 292.966L476.384 293.798L476.622 293.917L477.663 294.512ZM472.548 299.865C472.131 299.805 471.626 299.686 471.15 299.448C470.972 299.359 470.793 299.27 470.585 299.151L469.098 298.288L468.86 298.17L467.433 297.337L470.288 295.672L470.704 295.909L471.953 296.623L473.44 297.486C473.648 297.605 473.797 297.694 473.945 297.813C474.927 298.497 474.986 299.062 474.154 299.537C473.678 299.835 473.143 299.954 472.548 299.865Z" fill="#FFA500"/>
<path d="M375.487 323.684L373.613 322.614C366.952 318.778 367.785 312.057 375.487 307.626L402.577 292.104L428.567 307.121L401.477 322.643C393.775 327.044 382.148 327.52 375.487 323.684Z" fill="url(#paint29_linear_177_3502)"/>
<path d="M432.611 295.257V300.104C432.641 302.81 430.857 305.546 427.259 307.627C420.122 311.761 408.495 311.731 401.298 307.598C399.514 306.557 398.176 305.367 397.254 304.089C396.362 302.81 395.886 301.472 395.886 300.104V295.197C395.916 297.903 397.73 300.58 401.298 302.661C408.495 306.824 420.122 306.824 427.259 302.691C430.827 300.669 432.611 297.963 432.611 295.257Z" fill="url(#paint30_linear_177_3502)"/>
<path d="M432.611 295.197V295.256C432.611 297.962 430.827 300.638 427.259 302.69C420.122 306.824 408.495 306.794 401.298 302.661C397.73 300.579 395.916 297.903 395.886 295.197C395.857 292.491 397.641 289.755 401.209 287.673C408.346 283.54 419.973 283.569 427.169 287.703C430.768 289.814 432.582 292.491 432.611 295.197Z" fill="url(#paint31_linear_177_3502)"/>
<path d="M418.962 298.319C419.081 297.813 418.903 297.307 418.457 296.802C419.2 296.951 419.914 296.951 420.627 296.861C421.341 296.772 421.965 296.534 422.53 296.207C423.452 295.672 423.809 295.047 423.571 294.274C423.393 293.65 422.768 292.996 421.757 292.312L423.452 291.33L421.43 290.171L419.765 291.122L418.516 290.408L420.181 289.457L418.129 288.267L416.464 289.219L415.423 288.624L414.145 287.881L412.123 289.041L413.401 289.784L405.878 294.126L404.599 293.382L402.577 294.542L404.897 295.88L403.975 296.415L406.027 297.605L406.948 297.07L407.959 297.664L408.197 297.783L407.275 298.319L409.298 299.478L410.219 298.943C411.617 299.716 412.925 300.162 414.145 300.281C415.483 300.43 416.672 300.192 417.683 299.627C418.427 299.27 418.843 298.824 418.962 298.319ZM418.813 292.936C419.2 293.174 419.497 293.382 419.676 293.59C419.824 293.739 419.943 293.858 419.973 294.007C420.092 294.334 419.914 294.631 419.468 294.899C419.022 295.166 418.516 295.256 417.921 295.196C417.683 295.166 417.416 295.107 417.178 295.018C416.821 294.899 416.434 294.75 416.048 294.512L415.037 293.917L413.788 293.204L413.372 292.966L416.107 291.39L417.535 292.222L417.773 292.341L418.813 292.936ZM413.669 298.259C413.253 298.2 412.747 298.081 412.271 297.843C412.093 297.754 411.914 297.664 411.706 297.545L410.219 296.683L409.982 296.564L408.554 295.731L411.409 294.066L411.825 294.304L413.074 295.018L414.561 295.88C414.769 295.999 414.918 296.088 415.067 296.207C416.048 296.891 416.107 297.456 415.275 297.932C414.799 298.229 414.264 298.348 413.669 298.259Z" fill="white"/>
<path d="M432.611 286.96V291.807C432.641 294.513 430.857 297.249 427.259 299.33C420.122 303.464 408.495 303.434 401.298 299.301C399.514 298.26 398.176 297.07 397.254 295.792C396.362 294.513 395.886 293.175 395.886 291.807V286.9C395.916 289.606 397.73 292.283 401.298 294.364C408.495 298.528 420.122 298.528 427.259 294.394C430.827 292.342 432.611 289.666 432.611 286.96Z" fill="url(#paint32_linear_177_3502)"/>
<path d="M432.611 286.9V286.959C432.611 289.665 430.827 292.342 427.259 294.393C420.122 298.527 408.495 298.497 401.298 294.364C397.73 292.282 395.916 289.606 395.886 286.9C395.857 284.194 397.641 281.458 401.209 279.376C408.346 275.243 419.973 275.273 427.169 279.406C430.768 281.488 432.582 284.194 432.611 286.9Z" fill="url(#paint33_linear_177_3502)"/>
<path d="M418.962 289.992C419.081 289.487 418.903 288.981 418.457 288.476C419.2 288.624 419.914 288.624 420.627 288.535C421.341 288.446 421.966 288.208 422.531 287.881C423.452 287.346 423.809 286.721 423.571 285.948C423.393 285.324 422.768 284.669 421.757 283.985L423.452 283.004L421.43 281.844L419.765 282.796L418.516 282.082L420.181 281.131L418.129 279.941L416.464 280.893L415.423 280.298L414.145 279.555L412.123 280.714L413.401 281.458L405.878 285.799L404.599 285.056L402.577 286.216L404.897 287.554L403.975 288.089L406.027 289.279L406.948 288.743L407.959 289.338L408.197 289.457L407.276 289.992L409.298 291.152L410.219 290.617C411.617 291.39 412.926 291.836 414.145 291.955C415.483 292.104 416.672 291.866 417.683 291.301C418.427 290.974 418.843 290.498 418.962 289.992ZM418.813 284.61C419.2 284.848 419.497 285.056 419.676 285.264C419.824 285.413 419.943 285.532 419.973 285.68C420.092 286.008 419.914 286.305 419.468 286.573C419.022 286.84 418.516 286.929 417.921 286.87C417.683 286.84 417.416 286.781 417.178 286.692C416.821 286.573 416.434 286.424 416.048 286.186L415.037 285.591L413.788 284.878L413.372 284.64L416.107 283.064L417.535 283.896L417.773 284.015L418.813 284.61ZM413.669 289.963C413.253 289.903 412.747 289.784 412.271 289.546C412.093 289.457 411.914 289.368 411.706 289.249L410.219 288.387L409.982 288.268L408.554 287.435L411.409 285.77L411.825 286.008L413.074 286.721L414.561 287.584C414.769 287.703 414.918 287.792 415.067 287.911C416.048 288.595 416.107 289.16 415.275 289.635C414.799 289.933 414.264 290.022 413.669 289.963Z" fill="#28A745"/>
<path d="M432.611 278.786V283.633C432.641 286.339 430.857 289.075 427.258 291.157C420.122 295.29 408.495 295.26 401.298 291.127C399.514 290.086 398.176 288.897 397.254 287.618C396.362 286.339 395.886 285.001 395.886 283.633V278.727C395.916 281.433 397.73 284.109 401.298 286.191C408.495 290.354 420.122 290.354 427.258 286.22C430.827 284.168 432.611 281.462 432.611 278.786Z" fill="url(#paint34_linear_177_3502)"/>
<path d="M432.611 278.726V278.785C432.611 281.491 430.827 284.168 427.258 286.22C420.122 290.353 408.495 290.323 401.298 286.19C397.73 284.108 395.916 281.432 395.886 278.726C395.856 276.02 397.641 273.284 401.209 271.202C408.346 267.069 419.973 267.099 427.169 271.232C430.767 273.314 432.581 276.02 432.611 278.726Z" fill="url(#paint35_linear_177_3502)"/>
<path d="M418.962 281.819C419.081 281.313 418.903 280.807 418.456 280.302C419.2 280.451 419.914 280.451 420.627 280.361C421.341 280.272 421.965 280.034 422.53 279.707C423.452 279.172 423.809 278.547 423.571 277.774C423.393 277.15 422.768 276.496 421.757 275.812L423.452 274.83L421.43 273.671L419.765 274.622L418.516 273.908L420.181 272.957L418.129 271.767L416.464 272.719L415.423 272.124L414.145 271.381L412.123 272.541L413.401 273.284L405.878 277.626L404.599 276.882L402.577 278.042L404.896 279.38L403.975 279.915L406.026 281.105L406.948 280.57L407.959 281.164L408.197 281.283L407.275 281.819L409.298 282.978L410.219 282.443C411.617 283.216 412.925 283.662 414.145 283.781C415.483 283.93 416.672 283.692 417.683 283.127C418.427 282.8 418.843 282.324 418.962 281.819ZM418.813 276.436C419.2 276.674 419.497 276.882 419.676 277.09C419.824 277.239 419.943 277.358 419.973 277.507C420.092 277.834 419.914 278.131 419.468 278.399C419.021 278.666 418.516 278.756 417.921 278.696C417.683 278.666 417.416 278.607 417.178 278.518C416.821 278.399 416.434 278.25 416.048 278.012L415.037 277.417L413.788 276.704L413.371 276.466L416.107 274.89L417.535 275.722L417.773 275.841L418.813 276.436ZM413.669 281.789C413.253 281.729 412.747 281.61 412.271 281.372C412.093 281.283 411.914 281.194 411.706 281.075L410.219 280.213L409.981 280.094L408.554 279.261L411.409 277.596L411.825 277.834L413.074 278.547L414.561 279.41C414.769 279.529 414.918 279.618 415.066 279.737C416.048 280.421 416.107 280.986 415.275 281.462C414.799 281.759 414.264 281.848 413.669 281.789Z" fill="#28A745"/>
<path d="M432.611 270.337V275.184C432.641 277.89 430.857 280.626 427.259 282.707C420.122 286.841 408.495 286.811 401.298 282.678C399.514 281.637 398.176 280.447 397.254 279.169C396.362 277.89 395.886 276.552 395.886 275.184V270.277C395.916 272.983 397.73 275.66 401.298 277.741C408.495 281.904 420.122 281.904 427.259 277.771C430.827 275.719 432.611 273.043 432.611 270.337Z" fill="url(#paint36_linear_177_3502)"/>
<path d="M432.611 270.277V270.336C432.611 273.042 430.827 275.718 427.259 277.77C420.122 281.904 408.495 281.874 401.298 277.741C397.73 275.659 395.916 272.983 395.886 270.277C395.857 267.571 397.641 264.835 401.209 262.753C408.346 258.62 419.973 258.65 427.169 262.783C430.768 264.865 432.582 267.571 432.611 270.277Z" fill="url(#paint37_linear_177_3502)"/>
<path d="M418.962 273.369C419.081 272.864 418.903 272.358 418.457 271.853C419.2 272.001 419.914 272.001 420.627 271.912C421.341 271.823 421.965 271.585 422.53 271.258C423.452 270.723 423.809 270.098 423.571 269.325C423.393 268.701 422.768 268.046 421.757 267.362L423.452 266.381L421.43 265.221L419.765 266.173L418.516 265.459L420.181 264.508L418.129 263.318L416.464 264.27L415.423 263.675L414.145 262.932L412.123 264.091L413.401 264.835L405.878 269.176L404.599 268.433L402.577 269.593L404.897 270.931L403.975 271.466L406.027 272.656L406.948 272.12L407.959 272.715L408.197 272.834L407.275 273.369L409.298 274.529L410.219 273.994C411.617 274.767 412.925 275.213 414.145 275.332C415.483 275.481 416.672 275.243 417.683 274.678C418.427 274.351 418.843 273.875 418.962 273.369ZM418.813 267.987C419.2 268.225 419.497 268.433 419.676 268.641C419.824 268.79 419.943 268.909 419.973 269.057C420.092 269.385 419.914 269.682 419.468 269.95C419.022 270.217 418.516 270.306 417.921 270.247C417.683 270.217 417.416 270.158 417.178 270.068C416.821 269.95 416.434 269.801 416.048 269.563L415.037 268.968L413.788 268.255L413.372 268.017L416.107 266.441L417.535 267.273L417.773 267.392L418.813 267.987ZM413.669 273.34C413.253 273.28 412.747 273.161 412.271 272.923C412.093 272.834 411.914 272.745 411.706 272.626L410.219 271.763L409.982 271.645L408.554 270.812L411.409 269.147L411.825 269.385L413.074 270.098L414.561 270.961C414.769 271.08 414.918 271.169 415.067 271.288C416.048 271.972 416.107 272.537 415.275 273.012C414.799 273.31 414.264 273.399 413.669 273.34Z" fill="#FFA500"/>
<path d="M70.1788 153.856L68.3053 152.785C61.6443 148.949 62.4769 142.229 70.1788 137.798L97.269 122.275L123.259 137.293L96.1687 152.815C88.4669 157.216 76.8398 157.722 70.1788 153.856Z" fill="url(#paint38_linear_177_3502)"/>
<path d="M127.304 125.458V130.305C127.333 133.011 125.549 135.747 121.951 137.828C114.814 141.962 103.187 141.932 95.9907 137.799C94.2065 136.758 92.8684 135.568 91.9465 134.29C91.0544 133.011 90.5786 131.673 90.5786 130.305V125.398C90.6084 128.104 92.4223 130.781 95.9907 132.862C103.187 137.026 114.814 137.026 121.951 132.892C125.519 130.84 127.304 128.134 127.304 125.458Z" fill="url(#paint39_linear_177_3502)"/>
<path d="M127.304 125.368V125.428C127.304 128.134 125.519 130.81 121.951 132.862C114.814 136.996 103.187 136.966 95.9907 132.832C92.4223 130.751 90.6083 128.074 90.5786 125.368C90.5489 122.662 92.3331 119.927 95.9015 117.845C103.038 113.712 114.665 113.741 121.862 117.875C125.46 119.986 127.274 122.692 127.304 125.368Z" fill="url(#paint40_linear_177_3502)"/>
<path d="M113.654 128.49C113.773 127.985 113.595 127.479 113.149 126.974C113.892 127.122 114.606 127.122 115.32 127.033C116.033 126.944 116.658 126.706 117.223 126.379C118.145 125.844 118.501 125.219 118.263 124.446C118.085 123.822 117.461 123.167 116.45 122.484L118.145 121.502L116.122 120.342L114.457 121.294L113.208 120.58L114.873 119.629L112.822 118.439L111.156 119.391L110.116 118.796L108.837 118.053L106.815 119.212L108.093 119.956L100.57 124.297L99.2914 123.554L97.2693 124.714L99.5888 126.052L98.6669 126.587L100.719 127.777L101.641 127.241L102.652 127.836L102.89 127.955L101.968 128.49L103.99 129.65L104.912 129.115C106.309 129.888 107.618 130.334 108.837 130.453C110.175 130.602 111.365 130.364 112.376 129.799C113.119 129.442 113.535 128.996 113.654 128.49ZM113.506 123.108C113.892 123.346 114.19 123.554 114.368 123.762C114.517 123.911 114.636 124.03 114.665 124.179C114.784 124.506 114.606 124.803 114.16 125.071C113.714 125.338 113.208 125.427 112.613 125.368C112.376 125.338 112.108 125.279 111.87 125.19C111.513 125.071 111.127 124.922 110.74 124.684L109.729 124.089L108.48 123.376L108.064 123.138L110.8 121.562L112.227 122.394L112.465 122.513L113.506 123.108ZM108.361 128.431C107.945 128.371 107.439 128.252 106.963 128.015C106.785 127.925 106.607 127.836 106.398 127.717L104.912 126.855L104.674 126.736L103.246 125.903L106.101 124.238L106.517 124.476L107.766 125.19L109.253 126.052C109.461 126.171 109.61 126.26 109.759 126.379C110.74 127.063 110.8 127.628 109.967 128.104C109.491 128.431 108.956 128.52 108.361 128.431Z" fill="white"/>
<path d="M127.304 117.132V121.979C127.333 124.685 125.549 127.421 121.951 129.502C114.814 133.636 103.187 133.606 95.9907 129.473C94.2065 128.432 92.8684 127.242 91.9465 125.964C91.0544 124.685 90.5786 123.347 90.5786 121.979V117.072C90.6084 119.778 92.4223 122.455 95.9907 124.536C103.187 128.699 114.814 128.699 121.951 124.566C125.519 122.544 127.304 119.838 127.304 117.132Z" fill="url(#paint41_linear_177_3502)"/>
<path d="M127.304 117.072V117.131C127.304 119.837 125.519 122.513 121.951 124.565C114.814 128.699 103.187 128.669 95.9907 124.536C92.4223 122.454 90.6083 119.778 90.5786 117.072C90.5489 114.366 92.3331 111.63 95.9015 109.548C103.038 105.415 114.665 105.444 121.862 109.578C125.46 111.659 127.274 114.366 127.304 117.072Z" fill="url(#paint42_linear_177_3502)"/>
<path d="M113.654 120.194C113.773 119.688 113.595 119.182 113.149 118.677C113.892 118.826 114.606 118.826 115.32 118.736C116.033 118.647 116.658 118.409 117.223 118.082C118.145 117.547 118.501 116.922 118.263 116.149C118.085 115.525 117.461 114.871 116.45 114.187L118.145 113.205L116.122 112.046L114.457 112.997L113.208 112.283L114.873 111.332L112.822 110.142L111.156 111.094L110.116 110.499L108.837 109.756L106.815 110.916L108.093 111.659L100.57 116.001L99.2914 115.257L97.2693 116.417L99.5888 117.755L98.6669 118.29L100.719 119.48L101.641 118.945L102.652 119.539L102.89 119.658L101.968 120.194L103.99 121.353L104.912 120.818C106.309 121.591 107.618 122.037 108.837 122.156C110.175 122.305 111.365 122.067 112.376 121.502C113.119 121.145 113.535 120.669 113.654 120.194ZM113.506 114.781C113.892 115.019 114.19 115.227 114.368 115.436C114.517 115.584 114.636 115.703 114.665 115.852C114.784 116.179 114.606 116.476 114.16 116.744C113.714 117.012 113.208 117.101 112.613 117.041C112.376 117.012 112.108 116.952 111.87 116.863C111.513 116.744 111.127 116.595 110.74 116.357L109.729 115.763L108.48 115.049L108.064 114.811L110.8 113.235L112.227 114.068L112.465 114.187L113.506 114.781ZM108.361 120.134C107.945 120.075 107.439 119.956 106.963 119.718C106.785 119.629 106.607 119.539 106.398 119.42L104.912 118.558L104.674 118.439L103.246 117.606L106.101 115.941L106.517 116.179L107.766 116.893L109.253 117.755C109.461 117.874 109.61 117.963 109.759 118.082C110.74 118.766 110.8 119.331 109.967 119.807C109.491 120.104 108.956 120.223 108.361 120.134Z" fill="#28A745"/>
<path d="M127.304 108.958V113.805C127.334 116.511 125.549 119.247 121.951 121.328C114.814 125.462 103.187 125.432 95.9911 121.299C94.2069 120.258 92.8687 119.068 91.9469 117.79C91.0548 116.511 90.579 115.173 90.579 113.805V108.898C90.6087 111.604 92.4227 114.281 95.9911 116.362C103.187 120.526 114.814 120.526 121.951 116.392C125.52 114.34 127.304 111.664 127.304 108.958Z" fill="url(#paint43_linear_177_3502)"/>
<path d="M127.304 108.898V108.957C127.304 111.663 125.52 114.34 121.951 116.391C114.814 120.525 103.187 120.495 95.9911 116.362C92.4227 114.28 90.6087 111.604 90.579 108.898C90.5492 106.192 92.3335 103.456 95.9019 101.374C103.039 97.2409 114.666 97.2706 121.862 101.404C125.46 103.486 127.274 106.192 127.304 108.898Z" fill="url(#paint44_linear_177_3502)"/>
<path d="M113.655 111.99C113.773 111.485 113.595 110.979 113.149 110.474C113.892 110.622 114.606 110.622 115.32 110.533C116.033 110.444 116.658 110.206 117.223 109.879C118.145 109.344 118.502 108.719 118.264 107.946C118.085 107.322 117.461 106.667 116.45 105.984L118.145 105.002L116.123 103.842L114.457 104.794L113.208 104.08L114.874 103.129L112.822 101.939L111.157 102.891L110.116 102.296L108.837 101.553L106.815 102.712L108.094 103.456L100.57 107.797L99.2916 107.054L97.2695 108.214L99.589 109.552L98.6672 110.087L100.719 111.277L101.641 110.741L102.652 111.336L102.89 111.455L101.968 111.99L103.99 113.15L104.912 112.615C106.31 113.388 107.618 113.834 108.837 113.953C110.175 114.102 111.365 113.864 112.376 113.299C113.119 112.972 113.536 112.496 113.655 111.99ZM113.506 106.608C113.892 106.846 114.19 107.054 114.368 107.262C114.517 107.411 114.636 107.53 114.666 107.679C114.785 108.006 114.606 108.303 114.16 108.571C113.714 108.838 113.208 108.927 112.614 108.868C112.376 108.838 112.108 108.779 111.87 108.69C111.513 108.571 111.127 108.422 110.74 108.184L109.729 107.589L108.48 106.876L108.064 106.638L110.8 105.062L112.227 105.894L112.465 106.013L113.506 106.608ZM108.361 111.961C107.945 111.901 107.44 111.782 106.964 111.544C106.785 111.455 106.607 111.366 106.399 111.247L104.912 110.385L104.674 110.266L103.247 109.433L106.101 107.768L106.518 108.006L107.767 108.719L109.253 109.582C109.462 109.701 109.61 109.79 109.759 109.909C110.74 110.593 110.8 111.158 109.967 111.634C109.491 111.931 108.956 112.02 108.361 111.961Z" fill="#FFA500"/>
<path d="M340.754 250.623C342.628 251.723 342.628 254.429 340.754 255.529L293.681 282.947C289.547 285.326 284.492 285.326 280.359 282.947L181.841 224.93C179.878 223.8 179.878 220.945 181.841 219.815L233.553 189.692C234.653 189.038 236.021 189.038 237.151 189.692L340.754 250.623Z" fill="url(#paint45_linear_177_3502)"/>
<path d="M250.265 185.559C251.395 186.213 251.395 187.254 250.295 187.908C249.165 188.562 247.351 188.562 246.221 187.908C245.091 187.254 245.091 186.213 246.221 185.559C247.321 184.905 249.135 184.905 250.265 185.559Z" fill="white"/>
<path d="M221.599 202.182C220.26 201.409 219.606 200.398 219.606 199.387V202.806C219.606 203.818 220.26 204.829 221.599 205.602L226.684 208.516V205.096L221.599 202.182Z" fill="url(#paint46_linear_177_3502)"/>
<path d="M274.828 171.226L279.913 174.14L226.654 205.096L221.569 202.182C218.922 200.666 218.893 198.168 221.539 196.621L265.252 171.226C267.899 169.68 272.181 169.68 274.828 171.226ZM246.726 187.611C247.589 188.087 248.956 188.087 249.789 187.611C250.622 187.135 250.622 186.332 249.759 185.827C248.897 185.351 247.529 185.351 246.696 185.827C245.864 186.332 245.864 187.135 246.726 187.611Z" fill="url(#paint47_linear_177_3502)"/>
<path d="M369.807 226.061V229.48L316.548 260.436V256.987L369.807 226.061Z" fill="#C5C5C5"/>
<path d="M372.959 227.874C375.606 229.421 375.635 231.889 372.989 233.435L329.276 258.831C326.629 260.377 322.347 260.377 319.7 258.831L316.548 257.017L369.807 226.061L372.959 227.874ZM342.836 247.055L352.708 241.316C353.035 241.137 353.035 240.84 352.708 240.661C352.381 240.483 351.876 240.483 351.548 240.661L341.676 246.401C341.349 246.579 341.349 246.876 341.676 247.085C342.003 247.233 342.538 247.233 342.836 247.055Z" fill="url(#paint48_linear_177_3502)"/>
<path d="M352.708 240.661C353.036 240.84 353.036 241.137 352.708 241.315L342.836 247.055C342.509 247.233 342.003 247.233 341.676 247.055C341.349 246.876 341.349 246.579 341.676 246.371L351.549 240.631C351.876 240.483 352.381 240.483 352.708 240.661Z" fill="white"/>
<path d="M316.548 256.987V260.436L226.654 208.515V205.096L316.548 256.987Z" fill="url(#paint49_linear_177_3502)"/>
<path d="M369.807 226.061L316.548 256.988L226.654 205.097L279.913 174.141L369.807 226.061Z" fill="url(#paint50_linear_177_3502)"/>
<path d="M374.922 231.117C374.892 231.236 374.862 231.385 374.803 231.504C374.743 231.623 374.684 231.771 374.624 231.89C374.535 232.039 374.446 232.158 374.357 232.307C374.238 232.455 374.089 232.604 373.94 232.753C373.702 232.99 373.405 233.199 373.078 233.377C373.048 233.407 373.019 233.407 372.989 233.437L329.276 258.832C328.83 259.099 328.324 259.308 327.789 259.486C327.372 259.605 326.956 259.724 326.51 259.813C326.213 259.873 325.945 259.902 325.648 259.932C325.41 259.962 325.142 259.962 324.904 259.992C324.666 259.992 324.429 259.992 324.22 259.992C324.012 259.992 323.774 259.962 323.566 259.962C323.358 259.932 323.12 259.932 322.912 259.902C322.674 259.873 322.466 259.843 322.228 259.783C321.99 259.724 321.752 259.664 321.514 259.605C321.217 259.516 320.949 259.427 320.682 259.337C320.325 259.189 319.998 259.04 319.7 258.862L316.548 257.048V260.467L319.7 262.281C319.998 262.46 320.325 262.608 320.682 262.757C320.949 262.876 321.217 262.965 321.514 263.025C321.752 263.084 321.99 263.144 322.228 263.203C322.436 263.263 322.674 263.292 322.912 263.322C323.12 263.352 323.358 263.382 323.566 263.382C323.774 263.411 324.012 263.411 324.22 263.411C324.458 263.411 324.696 263.411 324.904 263.411C325.142 263.411 325.41 263.382 325.648 263.352C325.945 263.322 326.213 263.292 326.51 263.233C326.956 263.144 327.372 263.054 327.789 262.906C328.324 262.727 328.83 262.519 329.276 262.252L372.989 236.856C373.019 236.827 373.048 236.827 373.078 236.797C373.405 236.589 373.702 236.38 373.94 236.172C374.089 236.024 374.238 235.875 374.357 235.726C374.476 235.607 374.565 235.459 374.624 235.31C374.684 235.191 374.743 235.042 374.803 234.923C374.862 234.804 374.892 234.656 374.922 234.537C374.951 234.418 374.951 234.269 374.951 234.15V230.73C374.951 230.849 374.951 230.998 374.922 231.117Z" fill="url(#paint51_linear_177_3502)"/>
<path d="M237.211 250.859V326.213C237.211 329.157 236.229 331.208 234.653 332.041L230.728 334.301C231.412 333.914 231.977 333.26 232.363 332.428C232.691 331.773 232.928 330.971 233.047 330.049C233.107 329.573 233.137 329.067 233.137 328.532V253.209C233.137 247.945 229.925 241.819 225.97 239.53L100.986 167.388L97.8935 165.604C97.0906 165.158 96.3174 164.86 95.6038 164.801C94.7711 164.682 93.9682 164.831 93.314 165.187L97.2988 162.868C98.5477 162.154 100.183 162.214 101.967 163.254L230.044 237.21C233.999 239.47 237.211 245.596 237.211 250.859Z" fill="url(#paint52_linear_177_3502)"/>
<path d="M233.137 253.208V328.561C233.137 329.096 233.107 329.602 233.047 330.078C232.928 331 232.691 331.773 232.363 332.457C231.977 333.289 231.412 333.943 230.728 334.33C229.479 335.103 227.814 335.044 226 334.003L97.8935 260.018C93.9385 257.728 90.7269 251.602 90.7269 246.339V171.015C90.7269 168.071 91.7082 166.019 93.2843 165.187H93.314C93.9682 164.83 94.7414 164.681 95.6038 164.8C96.3175 164.889 97.0906 165.157 97.8935 165.603L100.986 167.387L225.97 239.529C229.925 241.819 233.137 247.944 233.137 253.208Z" fill="url(#paint53_linear_177_3502)"/>
<path d="M157.189 247.201C157.189 262.486 146.394 268.642 133.042 260.969C119.72 253.268 108.896 234.623 108.896 219.338C108.896 204.053 119.691 197.868 133.042 205.57V233.255L157.189 247.201Z" fill="#C9E9D1"/>
<path d="M152.937 239.916L137.265 230.876V212.885C145.919 217.881 152.937 229.983 152.937 239.916Z" fill="white"/>
<path d="M181.395 270.219H179.492V284.463H181.395V270.219Z" fill="#C9E9D1"/>
<path d="M181.365 271.408C180.919 271.408 180.443 271.259 179.967 270.991C178.54 270.159 177.44 268.255 177.44 266.59C177.44 265.609 177.826 264.836 178.51 264.449C179.194 264.063 180.086 264.092 180.919 264.598C182.346 265.43 183.446 267.334 183.446 268.999C183.446 269.98 183.06 270.753 182.376 271.14C182.078 271.318 181.722 271.408 181.365 271.408ZM179.521 266.085C179.491 266.085 179.462 266.085 179.462 266.085C179.432 266.114 179.343 266.233 179.343 266.59C179.343 267.571 180.086 268.85 180.948 269.326C181.276 269.504 181.454 269.475 181.484 269.475C181.513 269.445 181.603 269.326 181.603 268.969C181.603 267.988 180.859 266.709 179.997 266.233C179.759 266.114 179.61 266.085 179.521 266.085Z" fill="#C9E9D1"/>
<path d="M191.594 260.492H189.691V290.348H191.594V260.492Z" fill="#C9E9D1"/>
<path d="M191.564 261.681C191.118 261.681 190.643 261.532 190.167 261.265C188.739 260.432 187.639 258.529 187.639 256.864C187.639 255.882 188.026 255.109 188.71 254.723C189.394 254.336 190.286 254.366 191.118 254.871C192.546 255.704 193.646 257.607 193.646 259.243C193.646 260.224 193.259 260.997 192.576 261.384C192.278 261.592 191.951 261.681 191.564 261.681ZM189.721 256.358C189.691 256.358 189.661 256.358 189.661 256.358C189.632 256.388 189.542 256.507 189.542 256.864C189.542 257.845 190.286 259.124 191.148 259.599C191.475 259.778 191.654 259.748 191.683 259.748C191.713 259.718 191.802 259.599 191.802 259.243C191.802 258.261 191.059 256.983 190.197 256.507C189.959 256.388 189.81 256.358 189.721 256.358Z" fill="#C9E9D1"/>
<path d="M201.794 250.77H199.891V296.237H201.794V250.77Z" fill="white"/>
<path d="M201.794 251.96C201.348 251.96 200.872 251.811 200.396 251.544C198.969 250.711 197.869 248.808 197.869 247.172C197.869 246.191 198.255 245.418 198.939 245.031C199.623 244.645 200.515 244.674 201.348 245.18C202.775 246.012 203.876 247.916 203.876 249.581C203.876 250.562 203.489 251.335 202.805 251.722C202.478 251.871 202.151 251.96 201.794 251.96ZM199.921 246.637C199.891 246.637 199.861 246.637 199.861 246.637C199.831 246.667 199.742 246.786 199.742 247.142C199.742 248.124 200.486 249.402 201.348 249.878C201.675 250.057 201.853 250.027 201.883 250.027C201.913 249.997 202.002 249.878 202.002 249.521C202.002 248.54 201.259 247.261 200.396 246.786C200.158 246.667 200.01 246.637 199.921 246.637Z" fill="white"/>
<path d="M212.023 287.883H210.12V302.127H212.023V287.883Z" fill="#C9E9D1"/>
<path d="M211.994 289.07C211.548 289.07 211.072 288.921 210.596 288.653C209.169 287.821 208.069 285.918 208.069 284.252C208.069 283.271 208.455 282.498 209.139 282.111C209.823 281.725 210.715 281.754 211.548 282.26C212.975 283.093 214.075 284.996 214.075 286.661C214.075 287.642 213.689 288.415 213.005 288.802C212.678 288.98 212.351 289.07 211.994 289.07ZM210.12 283.747C210.091 283.747 210.061 283.747 210.061 283.747C210.031 283.776 209.942 283.895 209.942 284.252C209.942 285.234 210.685 286.512 211.548 286.988C211.875 287.166 212.053 287.137 212.083 287.137C212.113 287.107 212.202 286.988 212.202 286.631C212.202 285.65 211.459 284.371 210.596 283.895C210.358 283.776 210.21 283.747 210.12 283.747Z" fill="#C9E9D1"/>
<path d="M111.156 372.155L78.0888 390.771C75.1746 392.436 71.6061 392.436 68.7217 390.771L28.9041 367.903C27.5064 367.1 27.5064 365.108 28.9041 364.305L63.5475 344.768L111.156 372.155Z" fill="url(#paint54_linear_177_3502)"/>
<path d="M142.201 344.798C142.201 345.928 141.666 347.118 140.596 348.218C140.506 348.307 140.417 348.396 140.328 348.486C139.793 349.021 139.138 349.467 138.365 349.913L136.789 350.835L135.778 351.429L108.063 367.428C103.454 370.104 96.4364 370.402 92.4219 368.082L64.2611 351.846L63.0419 351.132L59.5925 349.14C59.2653 348.961 58.9977 348.783 58.7301 348.545C58.6409 348.485 58.5517 348.426 58.4922 348.337C57.5109 347.534 57.0053 346.553 56.9161 345.542V344.858C56.9756 344.352 57.0946 343.817 57.3919 343.311C57.5109 343.073 57.6596 342.835 57.8082 342.598C58.4625 341.705 59.4438 340.813 60.7522 340.07L91.054 322.585C95.693 319.908 102.681 319.611 106.696 321.93L139.525 340.903C140.328 341.349 140.952 341.884 141.398 342.479C141.517 342.657 141.666 342.835 141.755 343.014C142.082 343.609 142.201 344.322 142.201 344.798Z" fill="url(#paint55_linear_177_3502)"/>
<path d="M142.201 344.797V351.369C142.201 352.618 141.577 353.896 140.328 355.056C139.793 355.562 139.139 356.037 138.365 356.483L136.789 357.405L108.064 373.998C103.454 376.675 96.4365 376.972 92.422 374.653L63.042 357.703L59.5925 355.71C59.2654 355.532 58.9978 355.353 58.7302 355.145C57.6002 354.283 57.0054 353.242 56.8865 352.142V345.57C56.9757 346.581 57.5109 347.562 58.4625 348.365C58.5517 348.425 58.6409 348.484 58.7004 348.573C58.9681 348.782 59.2357 348.96 59.5628 349.168L63.0123 351.161L64.2315 351.874L92.3923 368.111C96.4067 370.43 103.395 370.133 108.034 367.456L135.749 351.458L136.76 350.863L138.336 349.941C139.109 349.495 139.763 349.02 140.298 348.514C140.387 348.425 140.477 348.336 140.566 348.246C141.666 347.116 142.201 345.927 142.201 344.797Z" fill="url(#paint56_linear_177_3502)"/>
<path d="M367.488 393.714C365.912 393.714 364.336 393.357 363.146 392.674L260.851 333.586L261.327 332.754L363.622 391.841C365.763 393.06 369.212 393.09 371.324 391.841L427.14 359.606C429.519 358.238 433.384 358.238 435.763 359.606L458.363 372.661C460.504 373.88 463.954 373.91 466.065 372.661L566.427 314.882C567.349 314.347 567.854 313.663 567.854 312.949C567.854 312.235 567.319 311.522 566.397 310.986L524.617 286.959C523.368 286.245 522.684 285.264 522.684 284.193C522.684 283.123 523.368 282.142 524.587 281.428L597.591 238.28C598.513 237.744 599.048 237.06 599.048 236.347C599.048 235.633 598.513 234.919 597.591 234.384L539.039 200.544L539.515 199.711L598.067 233.552C599.316 234.265 600 235.247 600 236.317C600 237.388 599.316 238.369 598.097 239.083L525.093 282.231C524.171 282.766 523.636 283.45 523.636 284.164C523.636 284.877 524.171 285.591 525.093 286.126L566.873 310.243C568.122 310.957 568.806 311.938 568.806 313.008C568.806 314.079 568.122 315.06 566.903 315.774L466.541 373.553C464.162 374.921 460.296 374.921 457.917 373.553L435.317 360.498C433.176 359.279 429.727 359.249 427.616 360.498L371.8 392.733C370.58 393.387 369.034 393.714 367.488 393.714Z" fill="#A1CCE6"/>
<path d="M536.185 201.553C534.876 201.553 533.568 201.255 532.557 200.66C531.486 200.036 530.921 199.203 530.921 198.282C530.921 197.36 531.486 196.527 532.557 195.932C534.579 194.773 537.761 194.773 539.783 195.932C540.853 196.557 541.418 197.389 541.418 198.311C541.418 199.233 540.853 200.066 539.783 200.66C538.772 201.255 537.463 201.553 536.185 201.553ZM533.003 199.858C534.757 200.869 537.582 200.869 539.307 199.858C540.05 199.441 540.467 198.876 540.467 198.311C540.467 197.746 540.05 197.181 539.277 196.765C537.523 195.754 534.728 195.754 532.973 196.765C532.23 197.181 531.813 197.746 531.813 198.311C531.843 198.847 532.259 199.412 533.003 199.858Z" fill="#A1CCE6"/>
<path d="M322.853 361.837C322.853 362.194 322.674 362.581 322.317 362.908C322.169 363.056 321.961 363.205 321.752 363.324L321.306 363.592L321.068 363.74L312.891 368.468C311.553 369.242 309.501 369.331 308.311 368.647L299.717 363.681L298.706 363.086C298.617 363.027 298.528 362.967 298.468 362.908C298.141 362.64 297.963 362.343 297.933 362.016V361.807C297.963 361.599 298.052 361.361 298.201 361.153C298.379 360.886 298.677 360.648 299.063 360.41L299.747 359.993L307.925 355.265C309.293 354.492 311.315 354.403 312.504 355.087L321.098 360.053L322.109 360.648C322.347 360.767 322.526 360.945 322.644 361.094C322.763 361.361 322.853 361.599 322.853 361.837Z" fill="url(#paint57_linear_177_3502)"/>
<path d="M491.044 362.788C491.044 362.997 490.955 363.175 490.747 363.383C490.658 363.472 490.568 363.532 490.449 363.621L490.212 363.77L490.093 363.859L485.692 366.416C484.948 366.833 483.848 366.892 483.223 366.506L478.584 363.829L478.049 363.502C477.99 363.472 477.96 363.443 477.901 363.413C477.722 363.264 477.633 363.116 477.603 362.937V362.818C477.603 362.699 477.663 362.58 477.752 362.461C477.841 362.313 478.019 362.194 478.228 362.075L478.614 361.867L483.015 359.309C483.759 358.893 484.859 358.833 485.483 359.22L490.122 361.896L490.687 362.223C490.806 362.283 490.925 362.372 490.985 362.461C491.014 362.551 491.044 362.669 491.044 362.788Z" fill="url(#paint58_linear_177_3502)"/>
<path d="M314.913 92.5691C314.913 93.2828 314.407 94.1451 313.783 94.502C313.158 94.8588 312.653 94.5615 312.653 93.8478C312.653 93.1341 313.158 92.2717 313.783 91.9149C314.407 91.558 314.913 91.8554 314.913 92.5691Z" fill="url(#paint59_linear_177_3502)"/>
<path d="M263.647 121.888C263.647 122.602 263.141 123.464 262.517 123.821C261.892 124.178 261.387 123.88 261.387 123.167C261.387 122.453 261.892 121.591 262.517 121.234C263.141 120.907 263.647 121.174 263.647 121.888Z" fill="url(#paint60_linear_177_3502)"/>
<path d="M244.05 59.7697C244.05 67.3824 238.697 76.6603 232.036 80.4963C228.735 82.3995 225.732 82.6077 223.561 81.3884C223.442 81.2992 223.294 81.2398 223.175 81.1505L223.145 81.1208C222.491 80.6747 221.896 80.08 221.42 79.3366C221.301 79.1582 221.182 78.95 221.093 78.7419C220.379 77.4037 219.993 75.679 219.993 73.6271C219.993 66.0145 225.375 56.7366 232.006 52.9005C233.315 52.1273 234.594 51.6516 235.783 51.4137C236.556 51.265 237.27 51.2055 237.954 51.265C238.876 51.3245 239.708 51.5921 240.452 52.0084L240.541 52.0679L240.66 52.1274C240.69 52.1571 240.69 52.1571 240.719 52.1868C242.801 53.4952 244.08 56.1121 244.05 59.7697Z" fill="url(#paint61_linear_177_3502)"/>
<path d="M240.779 52.2157C240.749 52.186 240.719 52.186 240.69 52.1562L240.779 52.2157Z" fill="url(#paint62_linear_177_3502)"/>
<path d="M240.511 52.0674C239.768 51.6511 238.935 51.3835 238.013 51.324C237.329 51.2645 236.586 51.324 235.843 51.4727C234.653 51.6808 233.374 52.1864 232.066 52.9595C225.435 56.7956 220.052 66.0735 220.052 73.6861C220.052 75.738 220.439 77.4627 221.153 78.8009C221.242 79.009 221.361 79.1875 221.48 79.3956C221.955 80.139 222.52 80.7338 223.204 81.1798L218.952 78.7414C216.781 77.4924 215.413 74.7567 215.413 70.9206C215.413 63.308 220.796 54.0301 227.427 50.2237C230.728 48.3206 233.642 48.1719 235.813 49.3911L235.872 49.4208L236.17 49.5993L240.511 52.0674Z" fill="url(#paint63_linear_177_3502)"/>
<path d="M232.423 70.9208L232.869 68.1255L234.95 66.4008L235.397 63.6352L233.345 65.3302L234.713 57.0039L230.877 59.2044L229.33 68.6608L227.278 70.326L226.743 73.1808L228.854 71.4263L228.052 76.4518L238.37 70.4747L238.876 67.1739L232.423 70.9208Z" fill="#FFA500"/>
<path d="M292.937 14.5385C292.937 21.7646 287.852 30.5667 281.548 34.1946C278.426 36.0085 275.571 36.187 273.519 35.0272C273.4 34.9678 273.281 34.8785 273.162 34.7893H273.133C272.508 34.373 271.943 33.808 271.497 33.0943C271.378 32.9159 271.259 32.7375 271.17 32.5293C270.486 31.2506 270.129 29.6151 270.129 27.6822C270.129 20.4562 275.244 11.654 281.519 8.02614C282.767 7.31245 283.957 6.83666 285.087 6.62851C285.801 6.47982 286.514 6.42035 287.169 6.47982C288.031 6.5393 288.834 6.77719 289.547 7.19351L289.637 7.25298L289.726 7.31245C289.756 7.31245 289.756 7.34219 289.785 7.34219C291.748 8.5614 292.937 11.0593 292.937 14.5385Z" fill="url(#paint64_linear_177_3502)"/>
<path d="M289.815 7.34224C289.785 7.34224 289.756 7.3125 289.756 7.3125L289.815 7.34224Z" fill="url(#paint65_linear_177_3502)"/>
<path d="M289.577 7.19445C288.864 6.80787 288.061 6.54024 287.198 6.48076C286.544 6.42129 285.86 6.48076 285.117 6.62945C283.987 6.8376 282.797 7.31339 281.548 8.02708C275.244 11.655 270.159 20.4571 270.159 27.6832C270.159 29.6458 270.516 31.2516 271.2 32.5303C271.289 32.7384 271.408 32.9169 271.527 33.0953C271.973 33.7792 272.508 34.3442 273.162 34.7903L269.148 32.4708C267.066 31.3111 265.788 28.6942 265.788 25.0366C265.788 17.8105 270.902 9.0084 277.177 5.3805C280.329 3.56655 283.065 3.4476 285.146 4.60734L285.206 4.63708L285.503 4.8155L289.577 7.19445Z" fill="url(#paint66_linear_177_3502)"/>
<path d="M286.841 22.093V24.5612L282.976 26.7914V28.427L280.835 29.6462V28.0404L276.969 30.2707V28.3378L280.835 20.7251L282.976 16.5322L283.184 16.1456L277.088 19.6546V17.2162L280.835 15.0454V13.4098L282.976 12.1906V13.8262L286.604 11.7148V13.6775L282.976 20.8143L280.835 25.0072L280.418 25.8101L286.841 22.093Z" fill="#FFA500"/>
<path d="M295.465 235.395L294.662 234.949C291.837 233.313 292.194 230.488 295.465 228.615L306.914 222.043L317.916 228.377L306.468 234.949C303.197 236.822 298.29 237.03 295.465 235.395Z" fill="url(#paint67_linear_177_3502)"/>
<path d="M279.853 226.92L279.05 226.474C276.225 224.839 276.582 222.014 279.853 220.14L291.302 213.568L302.305 219.902L290.856 226.474C287.615 228.348 282.678 228.556 279.853 226.92Z" fill="url(#paint68_linear_177_3502)"/>
<path d="M266.858 217.94L266.055 217.494C263.23 215.858 263.587 213.033 266.858 211.16L278.307 204.588L289.31 210.922L277.861 217.494C274.59 219.367 269.683 219.575 266.858 217.94Z" fill="url(#paint69_linear_177_3502)"/>
<path d="M273.549 199.057V207.353C273.579 208.691 274.471 210.059 276.255 211.07C279.883 213.152 285.711 213.182 289.31 211.1C291.094 210.059 291.986 208.721 291.986 207.353V207.323V199.057H273.549Z" fill="url(#paint70_linear_177_3502)"/>
<path d="M292.016 199.057V199.086C292.016 200.454 291.124 201.793 289.339 202.833C285.741 204.915 279.913 204.915 276.285 202.804C274.471 201.763 273.579 200.395 273.549 199.057C273.549 197.689 274.441 196.321 276.225 195.28C279.824 193.199 285.682 193.199 289.28 195.31C291.094 196.351 292.016 197.719 292.016 199.057Z" fill="url(#paint71_linear_177_3502)"/>
<path d="M287.763 150.615V215.471C287.793 216.81 288.685 218.177 290.469 219.188C294.097 221.27 299.926 221.3 303.524 219.218C305.308 218.177 306.2 216.839 306.2 215.471V215.442V150.615H287.763Z" fill="url(#paint72_linear_177_3502)"/>
<path d="M287.763 150.615V215.471C287.793 216.81 288.685 218.177 290.469 219.188C294.097 221.27 299.926 221.3 303.524 219.218C305.308 218.177 306.2 216.839 306.2 215.471V215.442V150.615H287.763Z" fill="url(#paint73_linear_177_3502)"/>
<path d="M306.23 150.615V150.645C306.23 152.013 305.338 153.351 303.553 154.392C299.955 156.473 294.127 156.473 290.499 154.362C288.685 153.321 287.793 151.953 287.763 150.615C287.763 149.247 288.655 147.88 290.44 146.839C294.038 144.757 299.896 144.757 303.494 146.868C305.308 147.909 306.23 149.277 306.23 150.615Z" fill="url(#paint74_linear_177_3502)"/>
<path d="M302.84 179.281V224.303C302.87 225.641 303.762 227.009 305.546 228.02C309.174 230.102 315.002 230.131 318.6 228.05C320.385 227.009 321.277 225.671 321.277 224.303V224.273V179.281H302.84Z" fill="url(#paint75_linear_177_3502)"/>
<path d="M321.336 179.283V179.313C321.336 180.681 320.444 182.019 318.66 183.06C315.062 185.141 309.233 185.141 305.605 183.03C303.791 181.989 302.899 180.621 302.87 179.283C302.87 177.915 303.762 176.548 305.546 175.507C309.144 173.425 315.002 173.425 318.6 175.536C320.414 176.577 321.306 177.915 321.336 179.283Z" fill="url(#paint76_linear_177_3502)"/>
</g>
<defs>
<linearGradient id="paint0_linear_177_3502" x1="182.961" y1="275.095" x2="97.0276" y2="350.212" gradientUnits="userSpaceOnUse">
<stop stop-color="#AEDBEB"/>
<stop offset="0.4724" stop-color="#D6EDF5"/>
<stop offset="1" stop-color="white"/>
</linearGradient>
<linearGradient id="paint1_linear_177_3502" x1="277.843" y1="90.0269" x2="251.05" y2="104.684" gradientUnits="userSpaceOnUse">
<stop stop-color="#AEDBEB"/>
<stop offset="0.2302" stop-color="#C3E5F0"/>
<stop offset="0.74" stop-color="#EEF8FB"/>
<stop offset="1" stop-color="white"/>
</linearGradient>
<linearGradient id="paint2_linear_177_3502" x1="240.854" y1="85.3165" x2="318.114" y2="85.3165" gradientUnits="userSpaceOnUse">
<stop stop-color="#E1EEF7"/>
<stop offset="0.5126" stop-color="#BDDBEB"/>
<stop offset="1" stop-color="#9ACAE1"/>
</linearGradient>
<linearGradient id="paint3_linear_177_3502" x1="306.572" y1="92.9546" x2="239.766" y2="102.748" gradientUnits="userSpaceOnUse">
<stop stop-color="#E1EEF7"/>
<stop offset="0.5126" stop-color="#BDDBEB"/>
<stop offset="1" stop-color="#9ACAE1"/>
</linearGradient>
<linearGradient id="paint4_linear_177_3502" x1="282.11" y1="43.536" x2="277.17" y2="87.0076" gradientUnits="userSpaceOnUse">
<stop stop-color="#28A745"/>
<stop offset="1" stop-color="#008C6B"/>
</linearGradient>
<linearGradient id="paint5_linear_177_3502" x1="282.126" y1="31.1905" x2="281.484" y2="46.9408" gradientUnits="userSpaceOnUse">
<stop stop-color="#28A745"/>
<stop offset="1" stop-color="#008C6B"/>
</linearGradient>
<linearGradient id="paint6_linear_177_3502" x1="220.137" y1="115.555" x2="193.344" y2="138.88" gradientUnits="userSpaceOnUse">
<stop stop-color="#AEDBEB"/>
<stop offset="0.2302" stop-color="#C3E5F0"/>
<stop offset="0.74" stop-color="#EEF8FB"/>
<stop offset="1" stop-color="white"/>
</linearGradient>
<linearGradient id="paint7_linear_177_3502" x1="190.198" y1="114.249" x2="267.457" y2="114.249" gradientUnits="userSpaceOnUse">
<stop stop-color="#E1EEF7"/>
<stop offset="0.5126" stop-color="#BDDBEB"/>
<stop offset="1" stop-color="#9ACAE1"/>
</linearGradient>
<linearGradient id="paint8_linear_177_3502" x1="255.916" y1="121.889" x2="189.109" y2="131.682" gradientUnits="userSpaceOnUse">
<stop stop-color="#E1EEF7"/>
<stop offset="0.5126" stop-color="#BDDBEB"/>
<stop offset="1" stop-color="#9ACAE1"/>
</linearGradient>
<linearGradient id="paint9_linear_177_3502" x1="231.468" y1="90.0402" x2="229.299" y2="118.951" gradientUnits="userSpaceOnUse">
<stop stop-color="#28A745"/>
<stop offset="1" stop-color="#008C6B"/>
</linearGradient>
<linearGradient id="paint10_linear_177_3502" x1="231.454" y1="79.0069" x2="230.813" y2="94.7572" gradientUnits="userSpaceOnUse">
<stop stop-color="#28A745"/>
<stop offset="1" stop-color="#008C6B"/>
</linearGradient>
<linearGradient id="paint11_linear_177_3502" x1="475.431" y1="133.97" x2="387.301" y2="211.006" gradientUnits="userSpaceOnUse">
<stop stop-color="#AEDBEB"/>
<stop offset="0.4724" stop-color="#D6EDF5"/>
<stop offset="1" stop-color="white"/>
</linearGradient>
<linearGradient id="paint12_linear_177_3502" x1="415.25" y1="153.496" x2="494.999" y2="116.617" gradientUnits="userSpaceOnUse">
<stop stop-color="#E1EEF7"/>
<stop offset="0.5126" stop-color="#BDDBEB"/>
<stop offset="1" stop-color="#9ACAE1"/>
</linearGradient>
<linearGradient id="paint13_linear_177_3502" x1="488.822" y1="151.092" x2="392.998" y2="177.57" gradientUnits="userSpaceOnUse">
<stop stop-color="#E1EEF7"/>
<stop offset="0.5126" stop-color="#BDDBEB"/>
<stop offset="1" stop-color="#9ACAE1"/>
</linearGradient>
<linearGradient id="paint14_linear_177_3502" x1="439.577" y1="194.529" x2="475.809" y2="174.455" gradientUnits="userSpaceOnUse">
<stop stop-color="#E1EEF7"/>
<stop offset="0.5126" stop-color="#BDDBEB"/>
<stop offset="1" stop-color="#9ACAE1"/>
</linearGradient>
<linearGradient id="paint15_linear_177_3502" x1="462.548" y1="109.553" x2="457.82" y2="151.792" gradientUnits="userSpaceOnUse">
<stop stop-color="#E1EEF7"/>
<stop offset="0.5126" stop-color="#BDDBEB"/>
<stop offset="1" stop-color="#9ACAE1"/>
</linearGradient>
<linearGradient id="paint16_linear_177_3502" x1="493" y1="-80" x2="453" y2="158" gradientUnits="userSpaceOnUse">
<stop stop-color="#28A745"/>
<stop offset="1" stop-color="white"/>
</linearGradient>
<linearGradient id="paint17_linear_177_3502" x1="467.048" y1="128.352" x2="466.375" y2="154.82" gradientUnits="userSpaceOnUse">
<stop stop-color="#28A745"/>
<stop offset="1" stop-color="#008C6B"/>
</linearGradient>
<linearGradient id="paint18_linear_177_3502" x1="421.093" y1="95.0993" x2="421.131" y2="95.0993" gradientUnits="userSpaceOnUse">
<stop offset="0.0227273" stop-color="#FF9A5A"/>
<stop offset="1" stop-color="#FF571C"/>
</linearGradient>
<linearGradient id="paint19_linear_177_3502" x1="465.88" y1="84.4608" x2="464.989" y2="112.291" gradientUnits="userSpaceOnUse">
<stop stop-color="#008C6B"/>
<stop offset="1" stop-color="#28A745"/>
</linearGradient>
<linearGradient id="paint20_linear_177_3502" x1="465.883" y1="62.8166" x2="464.437" y2="98.2459" gradientUnits="userSpaceOnUse">
<stop stop-color="#28A745"/>
<stop offset="1" stop-color="#008C6B"/>
</linearGradient>
<linearGradient id="paint21_linear_177_3502" x1="509.511" y1="165.901" x2="508.973" y2="172.553" gradientUnits="userSpaceOnUse">
<stop stop-color="#28A745"/>
<stop offset="1" stop-color="#008C6B"/>
</linearGradient>
<linearGradient id="paint22_linear_177_3502" x1="472.877" y1="309.079" x2="444.824" y2="328.149" gradientUnits="userSpaceOnUse">
<stop stop-color="#AEDBEB"/>
<stop offset="0.2302" stop-color="#C3E5F0"/>
<stop offset="0.74" stop-color="#EEF8FB"/>
<stop offset="1" stop-color="white"/>
</linearGradient>
<linearGradient id="paint23_linear_177_3502" x1="232.933" y1="84.4779" x2="224.356" y2="90.3082" gradientUnits="userSpaceOnUse">
<stop stop-color="#AEDBEB"/>
<stop offset="0.2302" stop-color="#C3E5F0"/>
<stop offset="0.74" stop-color="#EEF8FB"/>
<stop offset="1" stop-color="white"/>
</linearGradient>
<linearGradient id="paint24_linear_177_3502" x1="283.353" y1="36.657" x2="274.776" y2="42.4872" gradientUnits="userSpaceOnUse">
<stop stop-color="#AEDBEB"/>
<stop offset="0.2302" stop-color="#C3E5F0"/>
<stop offset="0.74" stop-color="#EEF8FB"/>
<stop offset="1" stop-color="white"/>
</linearGradient>
<linearGradient id="paint25_linear_177_3502" x1="480.907" y1="307.522" x2="456.391" y2="316.767" gradientUnits="userSpaceOnUse">
<stop stop-color="#E1EEF7"/>
<stop offset="0.5126" stop-color="#BDDBEB"/>
<stop offset="1" stop-color="#9ACAE1"/>
</linearGradient>
<linearGradient id="paint26_linear_177_3502" x1="454.785" y1="305.112" x2="491.487" y2="305.112" gradientUnits="userSpaceOnUse">
<stop stop-color="#E1EEF7"/>
<stop offset="0.5126" stop-color="#BDDBEB"/>
<stop offset="1" stop-color="#9ACAE1"/>
</linearGradient>
<linearGradient id="paint27_linear_177_3502" x1="480.907" y1="299.211" x2="456.391" y2="308.456" gradientUnits="userSpaceOnUse">
<stop stop-color="#E1EEF7"/>
<stop offset="0.5126" stop-color="#BDDBEB"/>
<stop offset="1" stop-color="#9ACAE1"/>
</linearGradient>
<linearGradient id="paint28_linear_177_3502" x1="454.785" y1="296.801" x2="491.487" y2="296.801" gradientUnits="userSpaceOnUse">
<stop stop-color="#E1EEF7"/>
<stop offset="0.5126" stop-color="#BDDBEB"/>
<stop offset="1" stop-color="#9ACAE1"/>
</linearGradient>
<linearGradient id="paint29_linear_177_3502" x1="414.003" y1="299.17" x2="385.949" y2="318.241" gradientUnits="userSpaceOnUse">
<stop stop-color="#AEDBEB"/>
<stop offset="0.2302" stop-color="#C3E5F0"/>
<stop offset="0.74" stop-color="#EEF8FB"/>
<stop offset="1" stop-color="white"/>
</linearGradient>
<linearGradient id="paint30_linear_177_3502" x1="422.033" y1="297.613" x2="397.516" y2="306.859" gradientUnits="userSpaceOnUse">
<stop stop-color="#E1EEF7"/>
<stop offset="0.5126" stop-color="#BDDBEB"/>
<stop offset="1" stop-color="#9ACAE1"/>
</linearGradient>
<linearGradient id="paint31_linear_177_3502" x1="395.911" y1="295.203" x2="432.613" y2="295.203" gradientUnits="userSpaceOnUse">
<stop stop-color="#E1EEF7"/>
<stop offset="0.5126" stop-color="#BDDBEB"/>
<stop offset="1" stop-color="#9ACAE1"/>
</linearGradient>
<linearGradient id="paint32_linear_177_3502" x1="422.033" y1="289.302" x2="397.516" y2="298.548" gradientUnits="userSpaceOnUse">
<stop stop-color="#E1EEF7"/>
<stop offset="0.5126" stop-color="#BDDBEB"/>
<stop offset="1" stop-color="#9ACAE1"/>
</linearGradient>
<linearGradient id="paint33_linear_177_3502" x1="395.911" y1="286.892" x2="432.613" y2="286.892" gradientUnits="userSpaceOnUse">
<stop stop-color="#E1EEF7"/>
<stop offset="0.5126" stop-color="#BDDBEB"/>
<stop offset="1" stop-color="#9ACAE1"/>
</linearGradient>
<linearGradient id="paint34_linear_177_3502" x1="422.033" y1="281.122" x2="397.516" y2="290.368" gradientUnits="userSpaceOnUse">
<stop stop-color="#E1EEF7"/>
<stop offset="0.5126" stop-color="#BDDBEB"/>
<stop offset="1" stop-color="#9ACAE1"/>
</linearGradient>
<linearGradient id="paint35_linear_177_3502" x1="395.911" y1="278.712" x2="432.613" y2="278.712" gradientUnits="userSpaceOnUse">
<stop stop-color="#E1EEF7"/>
<stop offset="0.5126" stop-color="#BDDBEB"/>
<stop offset="1" stop-color="#9ACAE1"/>
</linearGradient>
<linearGradient id="paint36_linear_177_3502" x1="422.033" y1="272.675" x2="397.516" y2="281.921" gradientUnits="userSpaceOnUse">
<stop stop-color="#E1EEF7"/>
<stop offset="0.5126" stop-color="#BDDBEB"/>
<stop offset="1" stop-color="#9ACAE1"/>
</linearGradient>
<linearGradient id="paint37_linear_177_3502" x1="395.911" y1="270.265" x2="432.613" y2="270.265" gradientUnits="userSpaceOnUse">
<stop stop-color="#E1EEF7"/>
<stop offset="0.5126" stop-color="#BDDBEB"/>
<stop offset="1" stop-color="#9ACAE1"/>
</linearGradient>
<linearGradient id="paint38_linear_177_3502" x1="108.692" y1="129.349" x2="80.6384" y2="148.419" gradientUnits="userSpaceOnUse">
<stop stop-color="#AEDBEB"/>
<stop offset="0.2302" stop-color="#C3E5F0"/>
<stop offset="0.74" stop-color="#EEF8FB"/>
<stop offset="1" stop-color="white"/>
</linearGradient>
<linearGradient id="paint39_linear_177_3502" x1="116.723" y1="127.791" x2="92.2062" y2="137.037" gradientUnits="userSpaceOnUse">
<stop stop-color="#E1EEF7"/>
<stop offset="0.5126" stop-color="#BDDBEB"/>
<stop offset="1" stop-color="#9ACAE1"/>
</linearGradient>
<linearGradient id="paint40_linear_177_3502" x1="90.6005" y1="125.382" x2="127.303" y2="125.382" gradientUnits="userSpaceOnUse">
<stop stop-color="#E1EEF7"/>
<stop offset="0.5126" stop-color="#BDDBEB"/>
<stop offset="1" stop-color="#9ACAE1"/>
</linearGradient>
<linearGradient id="paint41_linear_177_3502" x1="116.723" y1="119.481" x2="92.2062" y2="128.727" gradientUnits="userSpaceOnUse">
<stop stop-color="#E1EEF7"/>
<stop offset="0.5126" stop-color="#BDDBEB"/>
<stop offset="1" stop-color="#9ACAE1"/>
</linearGradient>
<linearGradient id="paint42_linear_177_3502" x1="90.6005" y1="117.071" x2="127.303" y2="117.071" gradientUnits="userSpaceOnUse">
<stop stop-color="#E1EEF7"/>
<stop offset="0.5126" stop-color="#BDDBEB"/>
<stop offset="1" stop-color="#9ACAE1"/>
</linearGradient>
<linearGradient id="paint43_linear_177_3502" x1="116.723" y1="111.301" x2="92.2066" y2="120.547" gradientUnits="userSpaceOnUse">
<stop stop-color="#E1EEF7"/>
<stop offset="0.5126" stop-color="#BDDBEB"/>
<stop offset="1" stop-color="#9ACAE1"/>
</linearGradient>
<linearGradient id="paint44_linear_177_3502" x1="90.6009" y1="108.891" x2="127.303" y2="108.891" gradientUnits="userSpaceOnUse">
<stop stop-color="#E1EEF7"/>
<stop offset="0.5126" stop-color="#BDDBEB"/>
<stop offset="1" stop-color="#9ACAE1"/>
</linearGradient>
<linearGradient id="paint45_linear_177_3502" x1="315.512" y1="190.264" x2="244.839" y2="252.041" gradientUnits="userSpaceOnUse">
<stop stop-color="#AEDBEB"/>
<stop offset="0.4724" stop-color="#D6EDF5"/>
<stop offset="1" stop-color="white"/>
</linearGradient>
<linearGradient id="paint46_linear_177_3502" x1="225.469" y1="194.808" x2="223.587" y2="208.557" gradientUnits="userSpaceOnUse">
<stop stop-color="#28A745"/>
<stop offset="1" stop-color="white"/>
</linearGradient>
<linearGradient id="paint47_linear_177_3502" x1="254.349" y1="172.5" x2="253.215" y2="200.162" gradientUnits="userSpaceOnUse">
<stop stop-color="#28A745"/>
<stop offset="1" stop-color="#008C6B"/>
</linearGradient>
<linearGradient id="paint48_linear_177_3502" x1="350.215" y1="228.418" x2="349.115" y2="255.211" gradientUnits="userSpaceOnUse">
<stop stop-color="#28A745"/>
<stop offset="1" stop-color="#008C6B"/>
</linearGradient>
<linearGradient id="paint49_linear_177_3502" x1="276.925" y1="229.661" x2="298.572" y2="217.052" gradientUnits="userSpaceOnUse">
<stop stop-color="#E1EEF7"/>
<stop offset="0.5126" stop-color="#BDDBEB"/>
<stop offset="1" stop-color="#9ACAE1"/>
</linearGradient>
<linearGradient id="paint50_linear_177_3502" x1="307.703" y1="179.611" x2="290.049" y2="246.652" gradientUnits="userSpaceOnUse">
<stop stop-color="#E1EEF7"/>
<stop offset="0.5126" stop-color="#BDDBEB"/>
<stop offset="1" stop-color="#9ACAE1"/>
</linearGradient>
<linearGradient id="paint51_linear_177_3502" x1="364.926" y1="214.34" x2="361.96" y2="264.303" gradientUnits="userSpaceOnUse">
<stop stop-color="#28A745"/>
<stop offset="1" stop-color="white"/>
</linearGradient>
<linearGradient id="paint52_linear_177_3502" x1="212.51" y1="76.1736" x2="179.61" y2="335.751" gradientUnits="userSpaceOnUse">
<stop stop-color="#28A745"/>
<stop offset="1" stop-color="white"/>
</linearGradient>
<linearGradient id="paint53_linear_177_3502" x1="172.808" y1="176.578" x2="161.533" y2="310.17" gradientUnits="userSpaceOnUse">
<stop stop-color="#28A745"/>
<stop offset="1" stop-color="#008C6B"/>
</linearGradient>
<linearGradient id="paint54_linear_177_3502" x1="92.7973" y1="348.36" x2="66.0043" y2="371.685" gradientUnits="userSpaceOnUse">
<stop stop-color="#AEDBEB"/>
<stop offset="0.2302" stop-color="#C3E5F0"/>
<stop offset="0.74" stop-color="#EEF8FB"/>
<stop offset="1" stop-color="white"/>
</linearGradient>
<linearGradient id="paint55_linear_177_3502" x1="56.9054" y1="344.981" x2="142.198" y2="344.981" gradientUnits="userSpaceOnUse">
<stop stop-color="#E1EEF7"/>
<stop offset="0.5126" stop-color="#BDDBEB"/>
<stop offset="1" stop-color="#9ACAE1"/>
</linearGradient>
<linearGradient id="paint56_linear_177_3502" x1="129.457" y1="353.414" x2="55.7039" y2="364.225" gradientUnits="userSpaceOnUse">
<stop stop-color="#E1EEF7"/>
<stop offset="0.5126" stop-color="#BDDBEB"/>
<stop offset="1" stop-color="#9ACAE1"/>
</linearGradient>
<linearGradient id="paint57_linear_177_3502" x1="312.296" y1="355.631" x2="311.826" y2="367.068" gradientUnits="userSpaceOnUse">
<stop stop-color="#28A745"/>
<stop offset="1" stop-color="#008C6B"/>
</linearGradient>
<linearGradient id="paint58_linear_177_3502" x1="485.35" y1="359.503" x2="485.097" y2="365.665" gradientUnits="userSpaceOnUse">
<stop stop-color="#28A745"/>
<stop offset="1" stop-color="#008C6B"/>
</linearGradient>
<linearGradient id="paint59_linear_177_3502" x1="313.956" y1="91.9644" x2="313.751" y2="94.2315" gradientUnits="userSpaceOnUse">
<stop stop-color="#28A745"/>
<stop offset="1" stop-color="#008C6B"/>
</linearGradient>
<linearGradient id="paint60_linear_177_3502" x1="262.689" y1="121.296" x2="262.486" y2="123.553" gradientUnits="userSpaceOnUse">
<stop stop-color="#28A745"/>
<stop offset="1" stop-color="#008C6B"/>
</linearGradient>
<linearGradient id="paint61_linear_177_3502" x1="245.57" y1="62.4084" x2="218.543" y2="71.027" gradientUnits="userSpaceOnUse">
<stop stop-color="#9ACAE1"/>
<stop offset="0.4874" stop-color="#BDDBEB"/>
<stop offset="1" stop-color="#E1EEF7"/>
</linearGradient>
<linearGradient id="paint62_linear_177_3502" x1="240.768" y1="52.1846" x2="240.727" y2="52.1975" gradientUnits="userSpaceOnUse">
<stop stop-color="#00CFCC"/>
<stop offset="1" stop-color="#008A85"/>
</linearGradient>
<linearGradient id="paint63_linear_177_3502" x1="224.195" y1="70.149" x2="232.017" y2="48.6189" gradientUnits="userSpaceOnUse">
<stop stop-color="#9ACAE1"/>
<stop offset="0.4874" stop-color="#BDDBEB"/>
<stop offset="1" stop-color="#E1EEF7"/>
</linearGradient>
<linearGradient id="paint64_linear_177_3502" x1="289.063" y1="13.0015" x2="273.773" y2="29.4669" gradientUnits="userSpaceOnUse">
<stop stop-color="#9ACAE1"/>
<stop offset="0.4874" stop-color="#BDDBEB"/>
<stop offset="1" stop-color="#E1EEF7"/>
</linearGradient>
<linearGradient id="paint65_linear_177_3502" x1="289.799" y1="7.32237" x2="289.76" y2="7.33462" gradientUnits="userSpaceOnUse">
<stop stop-color="#00CFCC"/>
<stop offset="1" stop-color="#008A85"/>
</linearGradient>
<linearGradient id="paint66_linear_177_3502" x1="272.629" y1="22.1048" x2="288.114" y2="7.99157" gradientUnits="userSpaceOnUse">
<stop stop-color="#9ACAE1"/>
<stop offset="0.4874" stop-color="#BDDBEB"/>
<stop offset="1" stop-color="#E1EEF7"/>
</linearGradient>
<linearGradient id="paint67_linear_177_3502" x1="311.758" y1="225.038" x2="299.893" y2="233.104" gradientUnits="userSpaceOnUse">
<stop stop-color="#AEDBEB"/>
<stop offset="0.2302" stop-color="#C3E5F0"/>
<stop offset="0.74" stop-color="#EEF8FB"/>
<stop offset="1" stop-color="white"/>
</linearGradient>
<linearGradient id="paint68_linear_177_3502" x1="296.155" y1="216.562" x2="284.29" y2="224.627" gradientUnits="userSpaceOnUse">
<stop stop-color="#AEDBEB"/>
<stop offset="0.2302" stop-color="#C3E5F0"/>
<stop offset="0.74" stop-color="#EEF8FB"/>
<stop offset="1" stop-color="white"/>
</linearGradient>
<linearGradient id="paint69_linear_177_3502" x1="283.153" y1="207.567" x2="271.288" y2="215.632" gradientUnits="userSpaceOnUse">
<stop stop-color="#AEDBEB"/>
<stop offset="0.2302" stop-color="#C3E5F0"/>
<stop offset="0.74" stop-color="#EEF8FB"/>
<stop offset="1" stop-color="white"/>
</linearGradient>
<linearGradient id="paint70_linear_177_3502" x1="284.176" y1="200.001" x2="283.617" y2="210.721" gradientUnits="userSpaceOnUse">
<stop stop-color="#28A745"/>
<stop offset="1" stop-color="#008C6B"/>
</linearGradient>
<linearGradient id="paint71_linear_177_3502" x1="286.537" y1="202.485" x2="278.294" y2="194.981" gradientUnits="userSpaceOnUse">
<stop stop-color="#E1EEF7"/>
<stop offset="0.5126" stop-color="#BDDBEB"/>
<stop offset="1" stop-color="#9ACAE1"/>
</linearGradient>
<linearGradient id="paint72_linear_177_3502" x1="298.39" y1="155.489" x2="284.477" y2="207.236" gradientUnits="userSpaceOnUse">
<stop stop-color="#28A745"/>
<stop offset="1" stop-color="#008C6B"/>
</linearGradient>
<linearGradient id="paint73_linear_177_3502" x1="303.035" y1="115.432" x2="265.678" y2="207.978" gradientUnits="userSpaceOnUse">
<stop stop-color="#28A745"/>
<stop offset="1" stop-color="white"/>
</linearGradient>
<linearGradient id="paint74_linear_177_3502" x1="300.761" y1="154.048" x2="292.518" y2="146.544" gradientUnits="userSpaceOnUse">
<stop stop-color="#E1EEF7"/>
<stop offset="0.5126" stop-color="#BDDBEB"/>
<stop offset="1" stop-color="#9ACAE1"/>
</linearGradient>
<linearGradient id="paint75_linear_177_3502" x1="313.466" y1="182.777" x2="306.067" y2="221.149" gradientUnits="userSpaceOnUse">
<stop stop-color="#28A745"/>
<stop offset="1" stop-color="#008C6B"/>
</linearGradient>
<linearGradient id="paint76_linear_177_3502" x1="315.841" y1="182.699" x2="307.598" y2="175.195" gradientUnits="userSpaceOnUse">
<stop stop-color="#E1EEF7"/>
<stop offset="0.5126" stop-color="#BDDBEB"/>
<stop offset="1" stop-color="#9ACAE1"/>
</linearGradient>
<clipPath id="clip0_177_3502">
<rect width="600" height="393.716" fill="white"/>
</clipPath>
</defs>
</svg>
