<svg width="32" height="32" viewBox="0 0 32 32" fill="none" xmlns="http://www.w3.org/2000/svg">
<g id="Iconsax/Bulk/rank">
<path id="Vector" opacity="0.4" d="M11.5598 18.666H5.33317C3.8665 18.666 2.6665 19.866 2.6665 21.3327V29.3327H11.5598V18.666Z" fill="#8E6ED4"/>
<path id="Vector_2" d="M17.7735 13.334H14.2135C12.7469 13.334 11.5469 14.534 11.5469 16.0007V29.334H20.4402V16.0007C20.4402 15.2934 20.1593 14.6151 19.6592 14.115C19.1591 13.6149 18.4808 13.334 17.7735 13.334Z" fill="#8E6ED4"/>
<path id="Vector_3" opacity="0.4" d="M26.6666 22.666H20.4399V29.3327H29.3333V25.3327C29.3333 23.866 28.1333 22.666 26.6666 22.666Z" fill="#8E6ED4"/>
<path id="Vector_4" d="M20.0137 6.46794C20.4271 6.05461 20.5871 5.56128 20.4537 5.13461C20.3204 4.70794 19.9071 4.40128 19.3204 4.30794L18.0404 4.09461C17.9609 4.06611 17.8915 4.01516 17.8404 3.94794L17.1337 2.53461C16.6004 1.45461 15.3871 1.45461 14.8537 2.53461L14.1471 3.94794C14.1204 4.00128 14.0004 4.08128 13.9471 4.09461L12.6671 4.30794C12.0804 4.40128 11.6804 4.70794 11.5337 5.13461C11.4004 5.56128 11.5604 6.05461 11.9737 6.46794L12.9604 7.46794C13.0004 7.50794 13.0537 7.66794 13.0404 7.72128L12.7604 8.94794C12.5471 9.85461 12.8937 10.2679 13.1204 10.4413C13.3471 10.6013 13.8404 10.8146 14.6537 10.3346L15.8537 9.62794C15.9071 9.58794 16.0804 9.58794 16.1337 9.62794L17.3337 10.3346C17.7071 10.5613 18.0137 10.6279 18.2537 10.6279C18.5337 10.6279 18.7337 10.5213 18.8537 10.4413C19.0804 10.2813 19.4271 9.86794 19.2137 8.94794L18.9337 7.72128C18.9204 7.65461 18.9604 7.50794 19.0137 7.46794L20.0137 6.46794Z" fill="#8E6ED4"/>
</g>
</svg>
