<svg width="160" height="160" viewBox="0 0 160 160" fill="none" xmlns="http://www.w3.org/2000/svg">
<path d="M80.5729 159.434C124.442 159.118 159.749 123.3 159.433 79.4314C159.118 35.5627 123.3 0.255569 79.4313 0.570809C35.5626 0.886049 0.255553 36.7043 0.570793 80.573C0.886033 124.442 36.7042 159.749 80.5729 159.434Z" fill="white"/>
<path d="M100.425 44.3329C102.133 44.3206 103.507 42.9262 103.495 41.2183C103.483 39.5105 102.088 38.1359 100.38 38.1482C98.6726 38.1605 97.298 39.5549 97.3103 41.2628C97.3226 42.9706 98.717 44.3452 100.425 44.3329Z" stroke="#8E6ED4" stroke-width="2" stroke-miterlimit="10" stroke-linecap="round" stroke-linejoin="round"/>
<path d="M33.564 38.7275C34.9447 38.7175 36.0559 37.5902 36.046 36.2095C36.036 34.8288 34.9087 33.7177 33.528 33.7276C32.1473 33.7375 31.0361 34.8648 31.0461 36.2455C31.056 37.6262 32.1833 38.7374 33.564 38.7275Z" stroke="#8E6ED4" stroke-width="2" stroke-miterlimit="10" stroke-linecap="round" stroke-linejoin="round"/>
<path d="M1.70923 72.4004L8.42404 79.0268" stroke="#69D68D" stroke-width="2" stroke-miterlimit="10" stroke-linecap="round" stroke-linejoin="round"/>
<path d="M8.33596 72.4004L1.79785 79.0268" stroke="#69D68D" stroke-width="2" stroke-miterlimit="10" stroke-linecap="round" stroke-linejoin="round"/>
<path d="M56.9297 30.1689L63.5561 36.7954" stroke="#69D68D" stroke-width="2" stroke-miterlimit="10" stroke-linecap="round" stroke-linejoin="round"/>
<path d="M63.5561 30.1689L56.9297 36.8837" stroke="#69D68D" stroke-width="2" stroke-miterlimit="10" stroke-linecap="round" stroke-linejoin="round"/>
<path d="M123.106 87.8633L127.435 92.1926" stroke="#69D68D" stroke-width="2" stroke-miterlimit="10" stroke-linecap="round" stroke-linejoin="round"/>
<path d="M127.435 87.8633L123.106 92.1926" stroke="#69D68D" stroke-width="2" stroke-miterlimit="10" stroke-linecap="round" stroke-linejoin="round"/>
<path d="M108.046 111.243L25.7012 111.243L25.785 121.497L108.13 121.497L108.046 111.243Z" stroke="#8E6ED4" stroke-width="2" stroke-miterlimit="10" stroke-linecap="round" stroke-linejoin="round"/>
<path d="M107.72 71.6922L25.3756 71.6922L25.4041 78.2599L107.749 78.2599L107.72 71.6922Z" stroke="#8E6ED4" stroke-width="2" stroke-miterlimit="10" stroke-linecap="round" stroke-linejoin="round"/>
<line x1="28.3333" y1="78.6675" x2="28.3333" y2="112.001" stroke="#8E6ED4" stroke-width="2"/>
<line x1="35.8333" y1="78.6675" x2="35.8333" y2="112.001" stroke="#8E6ED4" stroke-width="2"/>
<line x1="43.3333" y1="78.6675" x2="43.3333" y2="112.001" stroke="#8E6ED4" stroke-width="2"/>
<line x1="50.8333" y1="78.6675" x2="50.8333" y2="112.001" stroke="#8E6ED4" stroke-width="2"/>
<line x1="58.3333" y1="78.6675" x2="58.3333" y2="112.001" stroke="#8E6ED4" stroke-width="2"/>
<line x1="65.8333" y1="78.6675" x2="65.8333" y2="112.001" stroke="#8E6ED4" stroke-width="2"/>
<line x1="73.3333" y1="78.6675" x2="73.3333" y2="112.001" stroke="#8E6ED4" stroke-width="2"/>
<line x1="80.8333" y1="78.6675" x2="80.8333" y2="112.001" stroke="#8E6ED4" stroke-width="2"/>
<line x1="88.3333" y1="78.6675" x2="88.3333" y2="112.001" stroke="#8E6ED4" stroke-width="2"/>
<line x1="95.8333" y1="78.6675" x2="95.8333" y2="112.001" stroke="#8E6ED4" stroke-width="2"/>
<line x1="103.333" y1="78.6675" x2="103.333" y2="112.001" stroke="#8E6ED4" stroke-width="2"/>
<path d="M21.4119 72.3133L66.3834 50.4902L111.708 72.3133H21.4119Z" stroke="#8E6ED4" stroke-width="2" stroke-miterlimit="10" stroke-linecap="round" stroke-linejoin="round"/>
</svg>
