<svg width="160" height="160" viewBox="0 0 160 160" fill="none" xmlns="http://www.w3.org/2000/svg">
<path d="M80.0001 160C124.183 160 160 124.183 160 80.0001C160 35.8173 124.183 0 80.0001 0C35.8173 0 0 35.8173 0 80.0001C0 124.183 35.8173 160 80.0001 160Z" fill="white"/>
<path d="M125.834 63.3276H22.1631V121.437H125.834V63.3276Z" stroke="#8E6ED4" stroke-width="2" stroke-miterlimit="10" stroke-linecap="round" stroke-linejoin="round"/>
<path d="M22.4302 84.4175H68.9709" stroke="#8E6ED4" stroke-width="2" stroke-miterlimit="10" stroke-linecap="round" stroke-linejoin="round"/>
<path d="M80.0054 84.4175H125.567" stroke="#8E6ED4" stroke-width="2" stroke-miterlimit="10" stroke-linecap="round" stroke-linejoin="round"/>
<path d="M74.132 93.8502H73.6871C71.2844 93.8502 69.3267 91.8925 69.3267 89.4898V84.4175C69.3267 82.0149 71.2844 80.0571 73.6871 80.0571H74.132C76.5347 80.0571 78.4923 82.0149 78.4923 84.4175V89.4898C78.4923 91.8925 76.5347 93.8502 74.132 93.8502Z" stroke="#8E6ED4" stroke-width="2" stroke-miterlimit="10" stroke-linecap="round" stroke-linejoin="round"/>
<path d="M53.7539 63.3277C53.7539 52.2042 62.8306 43.1274 73.9541 43.1274C85.0776 43.1274 94.1544 52.2042 94.1544 63.3277" stroke="#8E6ED4" stroke-width="2" stroke-miterlimit="10" stroke-linecap="round" stroke-linejoin="round"/>
<path d="M139.538 88.4225C140.864 88.4225 141.94 87.3468 141.94 86.0199C141.94 84.6929 140.864 83.6172 139.538 83.6172C138.211 83.6172 137.135 84.6929 137.135 86.0199C137.135 87.3468 138.211 88.4225 139.538 88.4225Z" stroke="#8E6ED4" stroke-width="2" stroke-miterlimit="10" stroke-linecap="round" stroke-linejoin="round"/>
<path d="M55.3549 32.0038C57.1242 32.0038 58.5586 30.5695 58.5586 28.8002C58.5586 27.031 57.1242 25.5967 55.3549 25.5967C53.5856 25.5967 52.1514 27.031 52.1514 28.8002C52.1514 30.5695 53.5856 32.0038 55.3549 32.0038Z" stroke="#8E6ED4" stroke-width="2" stroke-miterlimit="10" stroke-linecap="round" stroke-linejoin="round"/>
<path d="M18.7812 42.3267L25.9892 49.6237" stroke="#69D68D" stroke-width="2" stroke-miterlimit="10" stroke-linecap="round" stroke-linejoin="round"/>
<path d="M25.9892 42.3267L18.7812 49.6237" stroke="#69D68D" stroke-width="2" stroke-miterlimit="10" stroke-linecap="round" stroke-linejoin="round"/>
<path d="M4.00928 78.188L11.2173 85.485" stroke="#69D68D" stroke-width="2" stroke-miterlimit="10" stroke-linecap="round" stroke-linejoin="round"/>
<path d="M11.2173 78.188L4.00928 85.485" stroke="#69D68D" stroke-width="2" stroke-miterlimit="10" stroke-linecap="round" stroke-linejoin="round"/>
<path d="M112.752 42.3267L120.049 49.6237" stroke="#69D68D" stroke-width="2" stroke-miterlimit="10" stroke-linecap="round" stroke-linejoin="round"/>
<path d="M120.049 42.3267L112.752 49.6237" stroke="#69D68D" stroke-width="2" stroke-miterlimit="10" stroke-linecap="round" stroke-linejoin="round"/>
</svg>
