<svg width="160" height="160" viewBox="0 0 160 160" fill="none" xmlns="http://www.w3.org/2000/svg">
<path d="M80.0001 160C124.183 160 160 124.183 160 80.0001C160 35.8173 124.183 0 80.0001 0C35.8173 0 0 35.8173 0 80.0001C0 124.183 35.8173 160 80.0001 160Z" fill="white"/>
<path d="M63.021 71.8884C72.8012 71.8884 80.7296 63.96 80.7296 54.1798C80.7296 44.3996 72.8012 36.4712 63.021 36.4712C53.2408 36.4712 45.3125 44.3996 45.3125 54.1798C45.3125 63.96 53.2408 71.8884 63.021 71.8884Z" stroke="#8E6ED4" stroke-width="2" stroke-miterlimit="10" stroke-linecap="round" stroke-linejoin="round"/>
<path d="M92.7431 108.996V122.256H33.2993V108.996C33.2993 94.2244 44.0668 81.9441 58.2159 79.6304L56.6141 105.882L63.0212 110.865L69.4284 105.882L67.8265 79.6304C74.1447 80.6092 79.751 83.6348 84.0224 87.9062C89.4507 93.3345 92.7431 100.809 92.7431 108.996Z" stroke="#8E6ED4" stroke-width="2" stroke-miterlimit="10" stroke-linecap="round" stroke-linejoin="round"/>
<path d="M26.1805 60.2306C27.9006 60.2306 29.2951 58.8362 29.2951 57.116C29.2951 55.3959 27.9006 54.0015 26.1805 54.0015C24.4604 54.0015 23.0659 55.3959 23.0659 57.116C23.0659 58.8362 24.4604 60.2306 26.1805 60.2306Z" stroke="#8E6ED4" stroke-width="2" stroke-miterlimit="10" stroke-linecap="round" stroke-linejoin="round"/>
<path d="M80.73 26.6816L88.0271 33.9786" stroke="#69D68D" stroke-width="2" stroke-miterlimit="10" stroke-linecap="round" stroke-linejoin="round"/>
<path d="M88.0271 26.6816L80.73 33.9786" stroke="#69D68D" stroke-width="2" stroke-miterlimit="10" stroke-linecap="round" stroke-linejoin="round"/>
<path d="M4.91211 87.3716L12.2091 94.6686" stroke="#69D68D" stroke-width="2" stroke-miterlimit="10" stroke-linecap="round" stroke-linejoin="round"/>
<path d="M12.2091 87.3716L4.91211 94.6686" stroke="#69D68D" stroke-width="2" stroke-miterlimit="10" stroke-linecap="round" stroke-linejoin="round"/>
<path d="M106.804 68.2393L114.101 75.5363" stroke="#69D68D" stroke-width="2" stroke-miterlimit="10" stroke-linecap="round" stroke-linejoin="round"/>
<path d="M114.101 68.2393L106.804 75.5363" stroke="#69D68D" stroke-width="2" stroke-miterlimit="10" stroke-linecap="round" stroke-linejoin="round"/>
<path d="M122.02 100.274C124.576 100.274 126.647 98.2025 126.647 95.6469C126.647 93.0913 124.576 91.0195 122.02 91.0195C119.464 91.0195 117.393 93.0913 117.393 95.6469C117.393 98.2025 119.464 100.274 122.02 100.274Z" stroke="#8E6ED4" stroke-width="2" stroke-miterlimit="10" stroke-linecap="round" stroke-linejoin="round"/>
</svg>
