<svg width="144" height="24" viewBox="0 0 144 24" fill="none" xmlns="http://www.w3.org/2000/svg">
<g id="Layer_1-2">
<path id="Vector" d="M5.62267 4.81115V9.80829H11.6955V14.1947H5.62267V19.1919H15.2634V23.6104H0.751953V0.392578H15.2634V4.81115H5.62267Z" fill="#8E6ED4"/>
<path id="Vector_2" d="M55.0644 8.48634C55.0644 4.02277 51.4323 0.390625 46.9687 0.390625H38.0352V23.6106H42.9059V16.5799H44.1123L50.2709 23.6106H56.7166L49.943 16.0099C53.0244 14.7778 55.0623 11.8142 55.0623 8.48634H55.0644ZM42.908 4.7792H46.3259C48.3702 4.7792 50.033 6.44205 50.033 8.48634C50.033 10.5306 48.3702 12.1935 46.3259 12.1935H42.908V4.7792Z" fill="#8E6ED4"/>
<path id="Vector_3" d="M70.6134 15.0306L64.3777 0.390625H58.3584V23.6106H63.2291V8.96634L69.497 23.6106H75.5163V0.390625H70.6134V15.0306Z" fill="#8E6ED4"/>
<path id="Vector_4" d="M82.2423 0.390625H77.3716V23.6106H90.9166V19.1921H82.2423V0.390625Z" fill="#12152B"/>
<path id="Vector_5" d="M122.47 11.5033C123.387 10.2926 123.891 8.80972 123.891 7.29472C123.891 3.48901 120.795 0.392578 116.989 0.392578H107.442L108.612 4.81115H116.537C117.906 4.81115 119.02 5.92544 119.02 7.29258C119.02 8.65972 117.906 9.80829 116.537 9.80829H109.954L111.165 14.1947H117.473C118.842 14.1947 119.957 15.3219 119.957 16.7104C119.957 18.099 118.842 19.1919 117.473 19.1919H112.504L113.712 23.6104H117.925C121.748 23.6104 124.86 20.514 124.86 16.7083C124.86 14.6962 123.994 12.8169 122.472 11.5012L122.47 11.5033Z" fill="#12152B"/>
<path id="Vector_6" d="M135.709 9.90836C133.367 9.0405 131.344 8.29265 131.344 6.80765C131.344 5.18979 132.981 4.45479 134.503 4.45479C137.355 4.45479 137.953 6.34907 137.953 7.93693V8.2605H142.855V7.93693C142.855 3.37693 139.206 0.0683594 134.179 0.0683594C129.713 0.0683594 126.471 2.90336 126.471 6.80765C126.471 11.2198 130.502 12.6748 133.74 13.8448C136.189 14.7298 138.306 15.4948 138.306 17.1919C138.306 18.5334 136.808 19.5448 134.824 19.5448C131.946 19.5448 131.342 17.6505 131.342 16.0626V15.7391H126.471V16.0626C126.471 20.6955 130.039 23.9312 135.145 23.9312C139.723 23.9312 143.177 21.0341 143.177 17.1919C143.177 12.6748 139.035 11.1405 135.707 9.90836H135.709Z" fill="#12152B"/>
<path id="Vector_7" d="M98.6845 0.390625L92.4146 23.6106H97.3431L98.3824 19.5349H105.231L106.292 23.6106H111.576L105.306 0.390625H98.6845ZM101.772 6.2342L104.082 15.1163H99.5095L101.772 6.2342Z" fill="#12152B"/>
<path id="Vector_8" d="M23.2388 0.390625L16.9688 23.6106H21.8973L22.9366 19.5349H29.7852L30.8459 23.6106H36.1302L29.8602 0.390625H23.2388ZM26.3266 6.2342L28.6366 15.1163H24.0638L26.3266 6.2342Z" fill="#8E6ED4"/>
</g>
</svg>
