<svg width="24" height="24" viewBox="0 0 24 24" fill="none" xmlns="http://www.w3.org/2000/svg">
<g id="Iconsax/Linear/teacher">
<path id="Vector" d="M10.05 2.5293L4.03002 6.4593C2.10002 7.7193 2.10002 10.5393 4.03002 11.7993L10.05 15.7293C11.13 16.4393 12.91 16.4393 13.99 15.7293L19.98 11.7993C21.9 10.5393 21.9 7.7293 19.98 6.4693L13.99 2.5393C12.91 1.8193 11.13 1.8193 10.05 2.5293Z" stroke="#656775" stroke-width="1.5" stroke-linecap="round" stroke-linejoin="round"/>
<path id="Vector_2" d="M5.63012 13.08L5.62012 17.77C5.62012 19.04 6.60012 20.4 7.80012 20.8L10.9901 21.86C11.5401 22.04 12.4501 22.04 13.0101 21.86L16.2001 20.8C17.4001 20.4 18.3801 19.04 18.3801 17.77V13.13M21.4001 15V9" stroke="#656775" stroke-width="1.5" stroke-linecap="round" stroke-linejoin="round"/>
</g>
</svg>
