<svg width="32" height="32" viewBox="0 0 32 32" fill="none" xmlns="http://www.w3.org/2000/svg">
<path opacity="0.4" d="M24.508 17.1191V23.6925C24.508 25.3858 23.188 27.1991 21.6013 27.7325L17.348 29.1458C16.6013 29.3991 15.388 29.3991 14.6546 29.1458L10.4013 27.7325C8.8013 27.1991 7.49463 25.3858 7.49463 23.6925L7.50796 17.1191L13.4013 20.9591C14.8413 21.9058 17.2146 21.9058 18.6546 20.9591L24.508 17.1191Z" fill="#8E6ED4"/>
<path d="M26.64 8.61211L18.6534 3.37211C17.2134 2.42544 14.84 2.42544 13.4 3.37211L5.37336 8.61211C2.80003 10.2788 2.80003 14.0521 5.37336 15.7321L7.50669 17.1188L13.4 20.9588C14.84 21.9054 17.2134 21.9054 18.6534 20.9588L24.5067 17.1188L26.3334 15.9188V19.9988C26.3334 20.5454 26.7867 20.9988 27.3334 20.9988C27.88 20.9988 28.3334 20.5454 28.3334 19.9988V13.4388C28.8667 11.7188 28.32 9.71878 26.64 8.61211Z" fill="#8E6ED4"/>
</svg>
