<svg width="42" height="42" viewBox="0 0 42 42" fill="none" xmlns="http://www.w3.org/2000/svg">
<g id="Group">
<g id="Group_2">
<path id="XMLID_19_" d="M21.0005 41C9.966 41 1.00049 32.0345 1.00049 21C1.00049 9.96552 9.966 1 21.0005 1C32.035 1 41.0005 9.96552 41.0005 21C41.0005 32.0345 32.035 41 21.0005 41Z" stroke="#C3C4C5" stroke-miterlimit="10"/>
</g>
<path id="XMLID_18_" d="M11.5181 27.7242C13.2422 28.8449 15.3112 29.4483 17.4663 29.4483C24.7077 29.4483 28.7594 23.3277 28.5008 17.8966C29.2767 17.3794 29.8801 16.6897 30.3974 15.9139C29.7077 16.2587 28.9319 16.4311 28.156 16.5173C28.9319 16.0001 29.5353 15.3104 29.8801 14.3621C29.1043 14.7932 28.3284 15.138 27.3801 15.3104C26.6905 14.5346 25.656 14.1035 24.5353 14.1035C22.0353 14.1035 20.225 16.4311 20.7422 18.8449C17.5525 18.6725 14.6215 17.1208 12.725 14.7932C11.6905 16.5173 12.2077 18.8449 13.9319 19.9656C13.3284 19.9656 12.725 19.7932 12.2077 19.4483C12.2077 21.2587 13.4146 22.8966 15.3112 23.3277C14.7939 23.5001 14.1905 23.5001 13.587 23.4139C14.1043 24.9656 15.4836 26.0863 17.2077 26.0863C15.656 27.3794 13.587 27.8966 11.5181 27.7242Z" fill="white"/>
</g>
</svg>
