<svg width="33" height="33" viewBox="0 0 33 33" fill="none" xmlns="http://www.w3.org/2000/svg">
<g id="XMLID_148_">
<path id="XMLID_150_" d="M26.3965 32.8262H5.80579C2.63279 32.8262 0.0673828 30.2608 0.0673828 27.0878V6.56458C0.0673828 3.39158 2.63279 0.826172 5.80579 0.826172H26.3965C29.5695 0.826172 32.135 3.39158 32.135 6.56458V27.1553C32.135 30.2608 29.5695 32.8262 26.3965 32.8262Z" fill="#8E6ED4" fill-opacity="0.1"/>
<path id="XMLID_149_" d="M7.56055 22.2269C9.11329 23.2395 10.9361 23.7796 12.8939 23.7796C19.3749 23.7796 23.088 18.3113 22.818 13.383C23.4931 12.9104 24.1007 12.3028 24.5732 11.5602C23.9656 11.8302 23.2905 12.0328 22.5479 12.1003C23.2905 11.6952 23.8306 10.9526 24.1007 10.1425C23.4256 10.5475 22.6829 10.8176 21.8728 11.0201C21.2652 10.345 20.3201 9.93994 19.3074 9.93994C17.0795 9.93994 15.3918 12.0328 15.9319 14.2606C13.0289 14.1256 10.4635 12.7079 8.70823 10.615C7.76308 12.1678 8.23566 14.2606 9.7884 15.2733C9.18081 15.2733 8.64072 15.0708 8.23565 14.8682C8.16814 16.4885 9.38333 17.9737 11.0711 18.3113C10.5985 18.4463 10.0584 18.4463 9.51835 18.3788C9.99093 19.7965 11.2736 20.8092 12.7589 20.8092C11.2736 21.8893 9.45085 22.4294 7.56055 22.2269Z" fill="#C4C5CA"/>
</g>
</svg>
