<svg width="25" height="24" viewBox="0 0 25 24" fill="none" xmlns="http://www.w3.org/2000/svg">
<g id="Verified">
<g id="Group 33868">
<path id="Vector" d="M10.9998 4.35391C11.5517 3.88203 12.4554 3.88203 13.0153 4.35391L14.279 5.44164C14.5189 5.64959 14.9668 5.81755 15.2867 5.81755H16.6464C17.4942 5.81755 18.19 6.51337 18.19 7.36116V8.72082C18.19 9.03274 18.358 9.48863 18.5659 9.72857L19.6536 10.9923C20.1255 11.5441 20.1255 12.4479 19.6536 13.0077L18.5659 14.2714C18.358 14.5114 18.19 14.9593 18.19 15.2792V16.6388C18.19 17.4866 17.4942 18.1825 16.6464 18.1825H15.2867C14.9748 18.1825 14.5189 18.3504 14.279 18.5584L13.0153 19.6461C12.4634 20.118 11.5597 20.118 10.9998 19.6461L9.73612 18.5584C9.49618 18.3504 9.04829 18.1825 8.72837 18.1825H7.34472C6.49693 18.1825 5.80111 17.4866 5.80111 16.6388V15.2712C5.80111 14.9593 5.63315 14.5114 5.4332 14.2714L4.35347 12.9998C3.88958 12.4479 3.88958 11.5521 4.35347 11.0003L5.4332 9.72857C5.63315 9.48863 5.80111 9.04074 5.80111 8.72882V7.35316C5.80111 6.50537 6.49693 5.80955 7.34472 5.80955H8.72837C9.0403 5.80955 9.49618 5.64159 9.73612 5.43364L10.9998 4.35391Z" fill="#8E6ED4"/>
<path id="Vector_2" d="M11.0317 14.5285C10.8727 14.5284 10.7202 14.4651 10.6078 14.3526L8.67229 12.417C8.56073 12.3042 8.49817 12.1518 8.49817 11.9931C8.49817 11.8344 8.56073 11.6821 8.67229 11.5692C8.90423 11.3373 9.28813 11.3373 9.52007 11.5692L11.0317 13.0809L14.4708 9.64173C14.7028 9.40979 15.0867 9.40979 15.3186 9.64173C15.5506 9.87367 15.5506 10.2576 15.3186 10.4895L11.4556 14.3526C11.3432 14.4651 11.1907 14.5284 11.0317 14.5285Z" fill="white"/>
</g>
</g>
</svg>
