<svg width="64" height="64" viewBox="0 0 64 64" fill="none" xmlns="http://www.w3.org/2000/svg">
<g id="Iconsax/Bulk/verify">
<path id="Vector" opacity="0.4" d="M28.6667 6.53352C30.5067 4.96018 33.52 4.96018 35.3867 6.53352L39.6 10.1602C40.4 10.8535 41.8933 11.4135 42.96 11.4135H47.4933C50.32 11.4135 52.64 13.7335 52.64 16.5602V21.0935C52.64 22.1335 53.2 23.6535 53.8933 24.4535L57.52 28.6669C59.0933 30.5069 59.0933 33.5202 57.52 35.3869L53.8933 39.6002C53.2 40.4002 52.64 41.8935 52.64 42.9602V47.4935C52.64 50.3202 50.32 52.6402 47.4933 52.6402H42.96C41.92 52.6402 40.4 53.2002 39.6 53.8935L35.3867 57.5202C33.5467 59.0935 30.5333 59.0935 28.6667 57.5202L24.4533 53.8935C23.6533 53.2002 22.16 52.6402 21.0933 52.6402H16.48C13.6533 52.6402 11.3333 50.3202 11.3333 47.4935V42.9335C11.3333 41.8935 10.7733 40.4002 10.1067 39.6002L6.50668 35.3602C4.96001 33.5202 4.96001 30.5335 6.50668 28.6935L10.1067 24.4535C10.7733 23.6535 11.3333 22.1602 11.3333 21.1202V16.5335C11.3333 13.7068 13.6533 11.3868 16.48 11.3868H21.0933C22.1333 11.3868 23.6533 10.8268 24.4533 10.1335L28.6667 6.53352Z" fill="#8E6ED4"/>
<path id="Vector_2" d="M28.7734 40.4554C28.2431 40.4549 27.7348 40.2439 27.36 39.8687L20.9067 33.4154C20.5348 33.039 20.3262 32.5312 20.3262 32.002C20.3262 31.4729 20.5348 30.9651 20.9067 30.5887C21.68 29.8154 22.96 29.8154 23.7334 30.5887L28.7734 35.6287L40.24 24.162C41.0134 23.3887 42.2934 23.3887 43.0667 24.162C43.84 24.9354 43.84 26.2154 43.0667 26.9887L30.1867 39.8687C29.812 40.2439 29.3036 40.4549 28.7734 40.4554Z" fill="#8E6ED4"/>
</g>
</svg>
