<svg width="24" height="25" viewBox="0 0 24 25" fill="none" xmlns="http://www.w3.org/2000/svg">
<g id="Website">
<path id="Vector" d="M12 22.5C17.523 22.5 22 18.023 22 12.5C22 6.977 17.523 2.5 12 2.5C6.477 2.5 2 6.977 2 12.5C2 18.023 6.477 22.5 12 22.5Z" stroke="#9496A0" stroke-width="1.5" stroke-linecap="round" stroke-linejoin="round"/>
<path id="Vector_2" d="M7.99995 3.5H8.99995C7.04998 9.34157 7.04998 15.6584 8.99995 21.5H7.99995M15 3.5C16.9499 9.34157 16.9499 15.6584 15 21.5" stroke="#9496A0" stroke-width="1.5" stroke-linecap="round" stroke-linejoin="round"/>
<path id="Vector_3" d="M3 16.4996V15.4996C8.84157 17.4496 15.1584 17.4496 21 15.4996V16.4996M3 9.49959C8.84157 7.54962 15.1584 7.54962 21 9.49959" stroke="#9496A0" stroke-width="1.5" stroke-linecap="round" stroke-linejoin="round"/>
</g>
</svg>
